<svg xmlns="http://www.w3.org/2000/svg" viewBox="0 0 87.76 45.42"><defs><style>.cls-1{fill:#f15a24;}</style></defs><title>logo2</title><g id="Layer_1" data-name="Layer 1"><path d="M580.3,227.09l.2-.06a3.33,3.33,0,0,0-.08-.38h-.17q0-.13.06-.54l.06-.18.14-.6q0-.12.13-.32h.28l0-.22q-.21,0-.21-.12a2.76,2.76,0,0,1,.39-.75l.11-.17.26-.31.17-.28.13-.13a.32.32,0,0,0,.16.07.31.31,0,0,0,.13-.05l0-.29.34-.33a3.32,3.32,0,0,1,.47-.4l.16-.15.16-.11.11-.12.53-.34a4.94,4.94,0,0,1,.42-.33.63.63,0,0,0,.19.15q.15-.07.16-.11s0-.05,0-.15a3.35,3.35,0,0,1,.42-.2l.24-.12.38-.13.19-.07a1.46,1.46,0,0,0,.39-.06q.38-.11.82-.2l.16-.05.19,0h.37l.24-.08h.05l.56.3q.2-.27.25-.27h0l.44,0,.56,0a2,2,0,0,0,.49.07l.08.09h0a.27.27,0,0,1,.13-.07s.09,0,.16.11a.17.17,0,0,1-.07.12l-.17.09-.21.13a.68.68,0,0,1-.28.17l-.38-.06-.28-.1-.41,0a.94.94,0,0,0-.31-.14l-.06,0q-.09.08-.11.08l-.07,0-.3-.06-.21-.2-.24.25a.21.21,0,0,1-.15.06l-.21,0-.43.14a.94.94,0,0,0-.26-.09,1.12,1.12,0,0,0-.35.15,1.42,1.42,0,0,1-.36,0q0,.12-.06.14l-.55.21a2.54,2.54,0,0,0-.42.25l-.34.21a.59.59,0,0,0-.12.15l-.22,0h-.08a.56.56,0,0,1-.15.3l-.19.15-.15.06s0,0-.07.08a1,1,0,0,1-.24.24l-.16-.05,0,.17-.19.15-.18.25a4.15,4.15,0,0,0-.27.38q-.13.23-.27.42l-.15,0a.59.59,0,0,1-.12.2v0H582l0,.07H582a.67.67,0,0,1,0,.12l-.1.19-.25.63-.1.12a2.8,2.8,0,0,1,0,.35,1.3,1.3,0,0,1-.12.37,1.44,1.44,0,0,0-.1.44q-.19,0-.22.16.21.13.21.22h0q0,.4,0,.47a2.86,2.86,0,0,0,0,.3q-.19.11-.19.25a.3.3,0,0,0,.09.19l.13,0a2,2,0,0,0,.08.31,1.05,1.05,0,0,1,0,.16l-.63.16h0a1.73,1.73,0,0,0,.53.08l.19,0a1.45,1.45,0,0,0,.13.62h0l-.08.42a.06.06,0,0,0,.07.07.26.26,0,0,0,.16-.08l.13.21a1,1,0,0,1,.15.28l.05.24s.05.08.13.13a1.06,1.06,0,0,1,.3.26,2.6,2.6,0,0,0,.31.31l.12.1.11.11.16.06a.31.31,0,0,1,.15.07l.06.09,0-.05a2.18,2.18,0,0,0,.59.46l.33.15.24.1q.15,0,.4-.33a.76.76,0,0,0,.51.17.44.44,0,0,0,.16,0l.15-.06.11,0h.08l.76,0h.61l.37,0a.41.41,0,0,1,.11-.12l.6-.07.42-.08.21.08h0q.12,0,.17-.22l.22,0,.47-.09.33,0,.5-.14a.35.35,0,0,1,0-.07q0-.11.07-.13l.54-.15-.55-.33.53-.3-.55-.65v0a1,1,0,0,0,.06-.37s0-.2-.07-.47V228q0-.21.12-.25l.4-.16,0,0,0,0a.9.9,0,0,0-.45-.12h-.11a.67.67,0,0,0-.23-.47.21.21,0,0,0-.12,0h-.15l-.1-.06h0l-.17,0a5.26,5.26,0,0,1-.67,0l-.18,0a.21.21,0,0,1-.13.06q-.1,0-.1-.1t.2-.25a.63.63,0,0,1,.19-.12h.46l.33.12h0a.38.38,0,0,0,.22-.12,2.15,2.15,0,0,0,.37.05h.1l.18,0,.24,0h0l.42-.07a.81.81,0,0,1,.13.27h0l0,.36s0,.05,0,.1a3,3,0,0,1,0,.47q0,.12,0,.55a2.61,2.61,0,0,1-.06.37q0,.11,0,.24h-.15a1.43,1.43,0,0,0-.1.31,1.59,1.59,0,0,0,0,.23.47.47,0,0,0,.17-.1.4.4,0,0,0,.09-.15.15.15,0,0,1,.1.07l-.54.21.53.44,0,0a.63.63,0,0,0,0,.16l-.13.06a.59.59,0,0,0,.13.21H592a.65.65,0,0,1,.07.15v.31a.55.55,0,0,0,0,.22l.06.12,0,.14a.26.26,0,0,0,0,.08,1,1,0,0,0,0,.1l-.19,0a.46.46,0,0,1-.13.17h-.54a3.48,3.48,0,0,1-.56.13l-.26,0-.08.08-.81.12h-.19a1.28,1.28,0,0,0-.38.13,2.68,2.68,0,0,1-.51,0l-.35.08a1.59,1.59,0,0,1-.33,0l-.52.12H587q-.6.1-1.08.14-.1-.11-.15-.1h-.12l-.2,0-.1.07h-.72l-.2,0-.47,0a.63.63,0,0,0-.19-.15l-.22,0,0,.11a2,2,0,0,1-.86-.4,3.21,3.21,0,0,0-.35-.32.55.55,0,0,0-.14-.28H582a.3.3,0,0,1-.17,0,2.66,2.66,0,0,1-.37-.42l-.26-.28a1.29,1.29,0,0,0,.06-.31q0-.18-.16-.18l-.16,0a1.94,1.94,0,0,0-.17-.31l0-.11-.28-.79a1.39,1.39,0,0,1-.09-.42v0l0-.14a2.27,2.27,0,0,0-.05-.24s0-.2,0-.55a1.46,1.46,0,0,0,0-.24.9.9,0,0,1,0-.13A.35.35,0,0,1,580.3,227.09Z" transform="translate(-580.24 -187.23)"/><path d="M593.75,226.09a.62.62,0,0,1,.12-.21,1.27,1.27,0,0,1,.33-.2,1.45,1.45,0,0,1,.31-.17.2.2,0,0,1,.17.08l0,.11.05.2a.45.45,0,0,0,0,.11.22.22,0,0,0,.07.13,1.88,1.88,0,0,0,.35-.16l.27-.09.27-.18.17-.07.15-.07.14,0h0l.44-.13h.19a.27.27,0,0,1,.15,0l.13.13.09,0,.19-.09h0a.31.31,0,0,1,.19.1.52.52,0,0,1,.15.28,3.47,3.47,0,0,1-.38.3q-.14.18-.21.18t-.27-.21h-.19a.88.88,0,0,1-.28-.08,1.35,1.35,0,0,0-.31-.08.24.24,0,0,1-.21.14l-.22,0-.26.08-.1,0q-.13.12-.45.35a.58.58,0,0,0-.2.52v.22q0,.12,0,.19s0,.12-.15.21a.32.32,0,0,1,.11.2.56.56,0,0,1,0,.11l.1,0,0,.19,0,1.15,0,.07-.17.09a1.08,1.08,0,0,0-.36.1,1.3,1.3,0,0,0,.4.08l.11,0a1.24,1.24,0,0,1,.06.29.26.26,0,0,1-.15.23,1.24,1.24,0,0,1-.33.06,1.53,1.53,0,0,0-.28.16l-.09,0q-.15,0-.15-.13a3.06,3.06,0,0,1,.1-.37.24.24,0,0,0,0-.08l0-.29a.64.64,0,0,1,0-.11l.15,0a1,1,0,0,0,0-.1.34.34,0,0,0-.1-.2V229a2.86,2.86,0,0,0,0-.3q0-.21,0-.36.24-.08.24-.21a.38.38,0,0,0,0-.1l-.13,0a.19.19,0,0,1-.11-.05v-.64s0-.07,0-.12v-.1a.69.69,0,0,1,.08-.28.27.27,0,0,1-.1-.12s0-.15,0-.42A.57.57,0,0,0,593.75,226.09Z" transform="translate(-580.24 -187.23)"/><path d="M598.2,226.08q0-.09.19-.24a2.64,2.64,0,0,1,.73-.43l.19.2a2,2,0,0,0-.1.45,2.79,2.79,0,0,0,0,.29v.24l-.11.15a.44.44,0,0,0,.14.31l0,.08v.38a1.19,1.19,0,0,0,0,.15l0,1.22a4,4,0,0,0,.08.44v.27a2.08,2.08,0,0,1,0,.22.33.33,0,0,1-.12.24l-.24.17-.37.27-.12,0a.22.22,0,0,1-.15-.08l0-.21a1.61,1.61,0,0,1,.07-.28v-.31l0-.63v-.12q0-.1.1-.1h.06a.58.58,0,0,0,0-.14,1,1,0,0,0,0-.2,1.54,1.54,0,0,1,0-.18l-.11-.08a1.72,1.72,0,0,0,0-.21s0-.05,0-.1v-.09a.36.36,0,0,1,.06-.19.25.25,0,0,1-.06-.16v-.24q.42-.08.42-.13v0a.35.35,0,0,0-.24-.08h-.25a.83.83,0,0,0,0-.13l-.05-.63Q598.31,226.14,598.2,226.08Zm.12-2.58h0q0-.22.33-.49a1,1,0,0,0,.17-.17l.13-.1a2.27,2.27,0,0,1,.3-.39.3.3,0,0,1,.16-.07.48.48,0,0,1,.15.1.26.26,0,0,1,.12.22.22.22,0,0,1-.12.18,5.79,5.79,0,0,0-.56.46l-.18.12-.22.15-.21.1S598.31,223.56,598.31,223.49Z" transform="translate(-580.24 -187.23)"/><path d="M601,220.11a.5.5,0,0,0,.16-.07,1.38,1.38,0,0,1,.24-.13.91.91,0,0,0,.32-.25h.06q.15,0,.15.17h0a.6.6,0,0,1,0,.08v0l.06.22,0,.54q0,.52,0,.55a.44.44,0,0,1-.11.17l0,.21.13,0a1.13,1.13,0,0,1,0,.23.38.38,0,0,1-.13.26q0,.18,0,.23a.19.19,0,0,0,.08.14q0,.12,0,.18l0,.8v.81a.66.66,0,0,1-.12.25.27.27,0,0,0,0,.13l.09.32v0a.33.33,0,0,1-.13.22l.14.31.07.05v.4l0,1.44-.12.07a1.78,1.78,0,0,1,0,.23s0,.12,0,.31v.17l.2,0,0,0,.12,1v.27l0,.19a1.42,1.42,0,0,0-.13.22.17.17,0,0,0,0,.08,2.65,2.65,0,0,0-.36.19l-.15.08h-.12a.45.45,0,0,1-.25.12l-.09,0q0-.1,0-.16a1.19,1.19,0,0,0,0-.2.48.48,0,0,1,0-.1,1.8,1.8,0,0,1,.05-.2v-.14l0-.19,0-.12.54-.35-.52-.36v-.08l0-.23.06-.16-.12-.23a.16.16,0,0,1,0-.07,2.56,2.56,0,0,1,.1-.27,1.1,1.1,0,0,0,.08-.35l-.15-.08V227q0-.15,0-.19s0-.11.07-.28a.52.52,0,0,0,0-.1q0-.22,0-.5a1.46,1.46,0,0,1,0-.18,1,1,0,0,1,.1-.29,1.38,1.38,0,0,1,0-.31l-.13-.16v-1.41a.32.32,0,0,0,.11-.13q0-.11.1-.25a.86.86,0,0,1-.22-.12,1.36,1.36,0,0,0,0-.22s0-.09-.12-.13a1.14,1.14,0,0,1,0-.23v-.26a.52.52,0,0,1,.09-.2.09.09,0,0,0,0-.05l0-.12,0-.12,0,0,.48-.34-.33-.44a1.47,1.47,0,0,1-.25-.39,1.17,1.17,0,0,1,0-.21A1.33,1.33,0,0,0,601,220.11Z" transform="translate(-580.24 -187.23)"/><path d="M603.62,220.11a.5.5,0,0,0,.16-.07,1.38,1.38,0,0,1,.24-.13.91.91,0,0,0,.32-.25h.06q.15,0,.15.17h0a.6.6,0,0,1,0,.08v0l.06.22,0,.54q0,.52,0,.55a.44.44,0,0,1-.11.17l0,.21.13,0a1.13,1.13,0,0,1,0,.23.38.38,0,0,1-.13.26q0,.18,0,.23a.19.19,0,0,0,.08.14q0,.12,0,.18l0,.8v.81a.66.66,0,0,1-.12.25.27.27,0,0,0,0,.13l.09.32v0a.33.33,0,0,1-.13.22l.14.31.07.05v.4l0,1.44-.12.07a1.78,1.78,0,0,1,0,.23s0,.12,0,.31v.17l.2,0,0,0,.12,1v.27l0,.19a1.42,1.42,0,0,0-.13.22.17.17,0,0,0,0,.08,2.65,2.65,0,0,0-.36.19l-.15.08H604a.45.45,0,0,1-.25.12l-.09,0q0-.1,0-.16a1.19,1.19,0,0,0,0-.2.48.48,0,0,1,0-.1,1.8,1.8,0,0,1,.05-.2v-.14l0-.19,0-.12.54-.35-.52-.36v-.08l0-.23.06-.16-.12-.23a.16.16,0,0,1,0-.07,2.56,2.56,0,0,1,.1-.27,1.1,1.1,0,0,0,.08-.35l-.15-.08V227q0-.15,0-.19s0-.11.07-.28a.52.52,0,0,0,0-.1q0-.22,0-.5a1.46,1.46,0,0,1,0-.18,1,1,0,0,1,.1-.29,1.38,1.38,0,0,1,0-.31l-.13-.16v-1.41a.32.32,0,0,0,.11-.13q0-.11.1-.25a.86.86,0,0,1-.22-.12,1.36,1.36,0,0,0,0-.22s0-.09-.12-.13a1.14,1.14,0,0,1,0-.23v-.26a.52.52,0,0,1,.09-.2.09.09,0,0,0,0-.05l0-.12,0-.12,0,0,.48-.34-.33-.44a1.47,1.47,0,0,1-.25-.39,1.17,1.17,0,0,1,0-.21A1.33,1.33,0,0,0,603.62,220.11Z" transform="translate(-580.24 -187.23)"/><path d="M610,225.73l.21-.13.13.15.13.06a5.67,5.67,0,0,1,.55.54,1,1,0,0,1,.21.3q.05.12.11.3l.09.23,0,0-.19-.06-.24.09-.22,0-.19.05-.42-.28a1.3,1.3,0,0,0-.3.26l-.44-.08-.24,0,0,0h-.56l-.24,0-.3,0-.3.05h-.27a4,4,0,0,1-.51.13,1.62,1.62,0,0,1-.06.3.67.67,0,0,1-.15.21q.21.14.22.2a2.91,2.91,0,0,0,.12.55l.12.06,0,.24.2.05a.69.69,0,0,0,.17.35.63.63,0,0,0,.32.12q0,.2.1.24a.5.5,0,0,0,.23.05l.11.17h.12a2.44,2.44,0,0,1,.38.16.37.37,0,0,0,.17,0,1.39,1.39,0,0,0,.33-.08l.41,0,.31-.09a1.4,1.4,0,0,0,.3,0,3.38,3.38,0,0,0,.4-.22,1.44,1.44,0,0,0,.33-.24,2.17,2.17,0,0,0,.22-.31.2.2,0,0,1,.18-.08.33.33,0,0,1,.17.08,1.26,1.26,0,0,1-.08.3q-.27.46-.34.6a.35.35,0,0,0-.14,0,.67.67,0,0,0-.21.13.59.59,0,0,1-.29.09,4.71,4.71,0,0,1-.55.13l-.33,0-.21.06-.38-.06-.22,0h-.11l-.24,0-.47,0h-.12l-.13-.08-.53-.17-.22-.19-.22-.14q-.18-.11-.19-.17l-.12-.21a1.57,1.57,0,0,0-.22-.24.34.34,0,0,0,.06-.15,3.82,3.82,0,0,0-.17-.36,1.8,1.8,0,0,1,0-.55,2,2,0,0,1,.09-.46,1.28,1.28,0,0,1,.11-.29l.22-.26.14-.3.5-.46.47-.29.47-.33.17,0,.49-.15.31,0,.42-.14A.48.48,0,0,1,610,225.73Zm-.74,1,.11.13.17,0a1.72,1.72,0,0,0,.35-.09l.37,0,0-.06a.41.41,0,0,0,0-.06.23.23,0,0,0-.08-.14l-.06-.08q-.15-.21-.19-.19l-.21-.1a.48.48,0,0,1-.12-.15,5.36,5.36,0,0,0-.63,0h-.13l-.22.13-.35.09-.47.19-.25.22-.15.12v0h0l.47.19.14.14.25-.3.07,0,.31.08h0l.37-.06Z" transform="translate(-580.24 -187.23)"/><path d="M613.51,227l.22,0,0,0-.06-.33.17-.1.37-.37.17-.12a.37.37,0,0,1,.2-.11l.22,0,.09.07a1.07,1.07,0,0,1,.29-.15v-.17a1.14,1.14,0,0,1,.3-.13l.3-.1.22,0,.18-.05a.32.32,0,0,1,.15.07l.24.16.13-.16.26.06.45.09.15.1.07,0a.42.42,0,0,0,.24-.11.69.69,0,0,1-.1-.14l0-.4,0-.13a1.9,1.9,0,0,0,.39-.3s-.08-.13-.23-.28a.81.81,0,0,1-.15-.55l.16-.08a.59.59,0,0,1-.08-.24,2,2,0,0,1-.1-.4l0-.18q0-.19,0-.49a1.4,1.4,0,0,1,.05-.31l-.07-.37a.4.4,0,0,1,0-.12l.12-.07q-.05-.11-.07-.1s-.07,0-.17,0l0,0h0l.52-.34-.13-.16,0-.3q0-.11-.21-.17t-.31-.15s0-.06.07-.1a1.74,1.74,0,0,1,.47-.13.91.91,0,0,1,.62-.24.76.76,0,0,1,.05.3v.12h0l0,.28v1a.42.42,0,0,1,0,.13l-.06.2,0,.47-.13.24a1.44,1.44,0,0,0,.16.38l-.06.24,0,.19a1.1,1.1,0,0,0,0,.17,1.18,1.18,0,0,0,0,.28.69.69,0,0,1,0,.12.22.22,0,0,1,0,.11l-.14,0a.58.58,0,0,0-.07.22.92.92,0,0,0,0,.1q.22.13.23.25s0,.14,0,.38a.3.3,0,0,0,0,.06,2.78,2.78,0,0,0,0,.37.67.67,0,0,1,0,.12v.31a.85.85,0,0,0-.08.17v.83l0,.43v.13l0,.3,0,.31.1.56v.25a3.35,3.35,0,0,1,.1.47v.28a.29.29,0,0,1,.11.21v.08a1.91,1.91,0,0,1-.46.08l-.47.08-.09-.08a1.06,1.06,0,0,1-.3.15l-.54.11a4.73,4.73,0,0,1-1,.17l-.58.07a4,4,0,0,1-.92-.08l-.12-.19a.75.75,0,0,1-.24.1s0,0-.07-.08l0-.12a.23.23,0,0,0-.07-.1.49.49,0,0,1-.19.06.23.23,0,0,1-.16-.06l-.37-.3a.87.87,0,0,0,0-.17.3.3,0,0,0-.12-.23l-.15-.15,0-.12q-.1-.47-.1-.51a1,1,0,0,1,0-.26,1.07,1.07,0,0,0,0-.3l.11-.2a4.77,4.77,0,0,1,.3-.67Zm.36,2.09a.39.39,0,0,1,.15.12l.06.14.21.29a2,2,0,0,0,.25.22l.16.16.17.09.23.16q.12,0,.19-.33a.84.84,0,0,0,.41.13l.55,0h.26l.56-.13a1,1,0,0,0,.39-.12,2.75,2.75,0,0,1,.26-.34.29.29,0,0,1,0-.13l0-.17v-.91a2.57,2.57,0,0,1-.05-.31l.22-.08a.57.57,0,0,1,0-.18s0-.08,0-.13l-.14,0,.39-.32-.38-.44v-.13a.19.19,0,0,0,0-.08v-.22l-.15,0-.19.07h-.07a.41.41,0,0,1-.27-.06l-.22-.21-.44-.13-.25-.17a3.61,3.61,0,0,1-.28.34h-.07a.92.92,0,0,0-.32.1h-.17q-.15,0-.37.24l-.21,0a.72.72,0,0,1-.15.15l-.21.12q-.25.22-.24.4a1.12,1.12,0,0,0-.3.3l-.17.26a1,1,0,0,0,0,.31.94.94,0,0,0,0,.25l0,.14.06.16.06.17a.74.74,0,0,1,.12.26S613.87,229,613.87,229.07Z" transform="translate(-580.24 -187.23)"/><path d="M623.28,226.37a.16.16,0,0,1-.1-.13,3,3,0,0,1,.08-.32,5.77,5.77,0,0,1,.16-.63l.28,0a.85.85,0,0,0-.09-.25.21.21,0,0,1,0-.1,2.84,2.84,0,0,1,.16-.52,1.87,1.87,0,0,1,.16-.48l.21-.35.12,0,.11,0a.24.24,0,0,0,.13-.07.21.21,0,0,0,.11,0,.23.23,0,0,0,0-.1l-.15,0-.06-.23s.06-.13.19-.26l.1-.13a1.12,1.12,0,0,1,.12-.17.64.64,0,0,0,.15-.23l0,0a1,1,0,0,1,.19-.22l.26-.18,0,0,.18-.09v-.15l.83-.66.19-.12.17-.12.16,0a1.36,1.36,0,0,1,.28-.17.49.49,0,0,1,.19.06l.09-.24.26.05,0-.12.28-.09a1.64,1.64,0,0,1,.46-.11l.19-.06.25-.06a.63.63,0,0,0,.15-.12h.15a1.32,1.32,0,0,0,.32-.08.67.67,0,0,1,.21,0l.19,0h.09l.85,0a.65.65,0,0,1,.45.24q.14.15.17.15t.22-.27a.67.67,0,0,0,.35.13h.09l.17,0,.21.07a8.76,8.76,0,0,1,1.09.33v.19h0l-.13.13c-.16.17-.26.25-.31.25a.53.53,0,0,1-.21-.08l-.84-.32-.08-.21-.17,0-.12,0-.42-.13a.33.33,0,0,1-.15-.09l-.06-.09a1.07,1.07,0,0,1-.27.08h-.88l-.16,0a2,2,0,0,0-.44.11l-.39,0-.39.08a.94.94,0,0,0-.25.11l-.32.15-.23.16a2.23,2.23,0,0,0-.94.62,1.54,1.54,0,0,0-.38.18.44.44,0,0,1,0,.15,1.49,1.49,0,0,0-.34.28l-.15.14a1.43,1.43,0,0,1-.25.3.2.2,0,0,1-.11,0h-.08a.29.29,0,0,1,0,.09s-.1.19-.31.53a4,4,0,0,0-.28.31l-.15.34-.13.32-.06.19a2.49,2.49,0,0,0-.22.47q0,.1-.08.38l-.11.42q0,.09-.21.13a.41.41,0,0,0,.15.28.83.83,0,0,0-.06.22,1.55,1.55,0,0,0,.05.35v0a.09.09,0,0,1-.06.08l-.51.19a.07.07,0,0,0-.06.07.14.14,0,0,0,0,.07,1.24,1.24,0,0,1,.12.22.55.55,0,0,0,.06.14l.29.24.11.3a.71.71,0,0,1,.06.23h0l0,.22.09,0a.43.43,0,0,1,.07.2h0l0,.17a1,1,0,0,0,.06.24l.12.23a2.84,2.84,0,0,1,.18.55s0,.06-.13.06l.06.16a.53.53,0,0,1,.2,0l.12.06.24.3.19.17.15.19a2.77,2.77,0,0,1,.35.22.27.27,0,0,0,.1.22,1.15,1.15,0,0,0,.31.15l.29.17.22.1.2.1.21.08.15.11a.42.42,0,0,1,.13.11.25.25,0,0,1,.17-.09l.74.2h.84a.19.19,0,0,1,.1,0,.64.64,0,0,0,.19.07.32.32,0,0,0,.11-.08l.08,0H630l.52-.07a4,4,0,0,0,.58-.13l.28.07a.74.74,0,0,0,.32-.15l.3-.07a2.32,2.32,0,0,0,.37-.14l.15,0a2.07,2.07,0,0,0,.54-.14l.56-.19.1-.12.24-.12a.75.75,0,0,1,.37-.12l.15,0c0-.11,0-.18.06-.21a.94.94,0,0,1,.22-.11l.23-.12a.3.3,0,0,1,.13.06,1.23,1.23,0,0,1-.13.53.8.8,0,0,0-.09.25.18.18,0,0,1-.08.1,3.09,3.09,0,0,1-.54.12,1.7,1.7,0,0,1-.3.11l-.35.08-.28.06-.3.08-.27,0a3,3,0,0,1-.46.12h-.46v0q0,.12-.15.12h-.25l-.79.18a3.59,3.59,0,0,1-.58.06l-.49,0h0a.2.2,0,0,1-.16.1H629a1.36,1.36,0,0,1-.43-.12.44.44,0,0,0-.16,0,.24.24,0,0,0-.17.12h-.31q-.12-.18-.22-.18h-.37a1.35,1.35,0,0,1-.61-.2,5.92,5.92,0,0,0-.62-.3q-.53-.33-.71-.42l0-.12h.14v-.09q0-.21-.16-.23t-.16.11a.86.86,0,0,1-.22-.16l-.44-.3-.13-.19-.06-.07-.22-.33a3.77,3.77,0,0,1-.67-1.53l.13-.08v-.12l-.14-.1a.66.66,0,0,0-.06-.28l0-.13a.6.6,0,0,1-.08-.14,2.21,2.21,0,0,1,0-.24l0-.28,0-.13a1,1,0,0,1-.06-.24.48.48,0,0,1,.1-.28A1.21,1.21,0,0,0,623.28,226.37Z" transform="translate(-580.24 -187.23)"/><path d="M636.27,220.22a.58.58,0,0,1,.26-.21l.42-.22a.78.78,0,0,1,.34-.08.33.33,0,0,1,.15.06,1.44,1.44,0,0,0-.35.17l-.24.26.49.47a.19.19,0,0,1,0,.13.7.7,0,0,1-.07.21l-.06.12-.11.05a.23.23,0,0,0-.05.08.29.29,0,0,0,0,.11.57.57,0,0,0,0,.15.31.31,0,0,0,.16-.06l.13,0-.06,1.12a1.62,1.62,0,0,0,0,.17c0,.06,0,.11,0,.15a.44.44,0,0,1-.15.29.28.28,0,0,0,0,.17l.11.13a.24.24,0,0,1,0,.15,2.19,2.19,0,0,1-.07.32l0,.25q0,.35,0,.37a1.89,1.89,0,0,1-.07.22l0,.27v.13l0,.21a.28.28,0,0,1,0,.08,3.1,3.1,0,0,0-.08.67.71.71,0,0,0,.06.28,4.21,4.21,0,0,0,.83-.66l.27.05a1,1,0,0,1,.33-.13l.36-.06a.26.26,0,0,1,.17.1l0,.14h.15a.65.65,0,0,0,.1-.15.07.07,0,0,1,.08-.05l.38,0a3.12,3.12,0,0,1,.62.07l.21.24a.72.72,0,0,0,.28.18l-.1.19a.39.39,0,0,0,.22.06.56.56,0,0,1,.13.35q0,.21,0,.44a.52.52,0,0,1-.09.3l-.08.08.1.25-.13.15,0,.06.17.18a.48.48,0,0,0,0,.12v.16l0,.38v.07a.84.84,0,0,0-.11.23s0,.17.08.44v.63a.83.83,0,0,1-.36.12.92.92,0,0,1-.22.13l-.24.1-.22-.2a2.27,2.27,0,0,1,.13-.35,1.2,1.2,0,0,0,.11-.49,1.35,1.35,0,0,0-.09-.3l0-.08,0-.24a2.55,2.55,0,0,0,.12-.54l-.11-.06a6.84,6.84,0,0,1,.07-.76.54.54,0,0,0,0-.08v0l0-.31,0-.06a.25.25,0,0,0,0-.09h0a.91.91,0,0,0-.09-.21.39.39,0,0,0-.15-.18.8.8,0,0,0-.22-.07l-.3-.14h-.27l-.42-.05H639l-.31,0a2.69,2.69,0,0,0-.52.07l-.08,0-.37.19-.22.08a2.42,2.42,0,0,0-.47.47q0,.16.42.25l0,.17a5.73,5.73,0,0,0-.06.71.26.26,0,0,0-.19.05v0a.94.94,0,0,1,.21.33,2.41,2.41,0,0,1,.06.55l0,.21-.06.28,0,.17v.22a.24.24,0,0,1-.07.13l-.4.14a1,1,0,0,0-.31.22l-.15-.13a2.07,2.07,0,0,1,.09-.48v-.19l.09-.18a.3.3,0,0,0,0-.15.21.21,0,0,0,0-.1.62.62,0,0,1-.08-.16h0l0-.33v-.3s0-.06,0-.1v-.31l0-.48,0-.37,0-.12a.85.85,0,0,1,.17-.17.13.13,0,0,0,0-.1,1.27,1.27,0,0,0,0-.21l-.15,0a2.81,2.81,0,0,1-.08-.69q0-.49,0-1.09l.22,0a1.07,1.07,0,0,1-.11-.3l-.15-.1a2.3,2.3,0,0,0,0-.28,1.3,1.3,0,0,0,0-.21,5.27,5.27,0,0,1-.06-.63.3.3,0,0,1,.12-.25,1.54,1.54,0,0,0,.3-.25h0a.69.69,0,0,0-.46-.15,1.46,1.46,0,0,0,0-.24,1.66,1.66,0,0,0,.08-.26.27.27,0,0,0-.13-.2c0-.11,0-.2,0-.26s0-.16,0-.23,0-.24,0-.29,0-.12,0-.28a4,4,0,0,1-.15-.55s0-.09,0-.15Z" transform="translate(-580.24 -187.23)"/><path d="M646.76,225.73l.21-.13.13.15.13.06a5.61,5.61,0,0,1,.55.54,1,1,0,0,1,.21.3q.05.12.11.3l.09.23,0,0-.19-.06-.24.09-.22,0-.19.05-.42-.28a1.3,1.3,0,0,0-.3.26l-.44-.08-.24,0,0,0h-.56l-.24,0-.3,0-.3.05h-.27a4.05,4.05,0,0,1-.51.13,1.58,1.58,0,0,1-.06.3.67.67,0,0,1-.15.21q.21.14.22.2a2.85,2.85,0,0,0,.12.55l.11.06,0,.24.2.05a.69.69,0,0,0,.17.35.63.63,0,0,0,.32.12q0,.2.1.24a.5.5,0,0,0,.23.05l.11.17h.12a2.44,2.44,0,0,1,.38.16.37.37,0,0,0,.17,0,1.39,1.39,0,0,0,.33-.08l.41,0,.31-.09a1.4,1.4,0,0,0,.3,0,3.4,3.4,0,0,0,.4-.22,1.44,1.44,0,0,0,.33-.24,2.19,2.19,0,0,0,.22-.31.2.2,0,0,1,.18-.08.33.33,0,0,1,.17.08,1.25,1.25,0,0,1-.08.3q-.27.46-.34.6a.35.35,0,0,0-.14,0,.67.67,0,0,0-.21.13.59.59,0,0,1-.29.09,4.72,4.72,0,0,1-.55.13l-.33,0-.21.06-.38-.06-.22,0h-.11l-.24,0-.47,0h-.12l-.13-.08-.53-.17-.22-.19-.22-.14c-.12-.07-.18-.13-.19-.17l-.12-.21a1.56,1.56,0,0,0-.22-.24.34.34,0,0,0,.06-.15,3.89,3.89,0,0,0-.17-.36,1.81,1.81,0,0,1,0-.55,2,2,0,0,1,.09-.46,1.26,1.26,0,0,1,.11-.29l.22-.26.14-.3.5-.46.47-.29.48-.33.17,0,.49-.15.31,0,.42-.14A.48.48,0,0,1,646.76,225.73Zm-.74,1,.11.13.17,0a1.72,1.72,0,0,0,.35-.09l.37,0,0-.06a.38.38,0,0,0,0-.06.23.23,0,0,0-.08-.14l-.06-.08c-.1-.14-.17-.2-.19-.19l-.21-.1a.49.49,0,0,1-.12-.15,5.35,5.35,0,0,0-.63,0h-.13l-.22.13-.35.09-.47.19-.25.22-.15.12v0h0l.47.19.14.14.25-.3.07,0,.31.08h0l.37-.06Z" transform="translate(-580.24 -187.23)"/><path d="M653.52,225.73l.21-.13.13.15.13.06a5.73,5.73,0,0,1,.55.54,1,1,0,0,1,.21.3q.05.12.11.3l.09.23,0,0-.19-.06-.24.09-.22,0-.19.05-.42-.28a1.3,1.3,0,0,0-.3.26l-.44-.08-.24,0,0,0h-.56l-.24,0-.3,0-.3.05H651a4,4,0,0,1-.51.13,1.66,1.66,0,0,1-.06.3.67.67,0,0,1-.15.21q.21.14.22.2a3,3,0,0,0,.12.55l.12.06,0,.24.2.05a.69.69,0,0,0,.17.35.63.63,0,0,0,.32.12q0,.2.1.24a.51.51,0,0,0,.23.05l.11.17h.12a2.44,2.44,0,0,1,.38.16.37.37,0,0,0,.17,0,1.39,1.39,0,0,0,.33-.08l.41,0,.31-.09a1.4,1.4,0,0,0,.3,0,3.36,3.36,0,0,0,.4-.22,1.45,1.45,0,0,0,.33-.24,2.15,2.15,0,0,0,.22-.31A.2.2,0,0,1,655,229a.33.33,0,0,1,.17.08,1.26,1.26,0,0,1-.08.3q-.27.46-.34.6a.35.35,0,0,0-.14,0,.67.67,0,0,0-.21.13.59.59,0,0,1-.29.09,4.7,4.7,0,0,1-.55.13l-.33,0-.21.06-.38-.06-.22,0h-.11l-.24,0-.47,0h-.12l-.13-.08-.53-.17-.22-.19-.22-.14c-.12-.07-.18-.13-.19-.17l-.12-.21a1.59,1.59,0,0,0-.22-.24.34.34,0,0,0,.06-.15,3.75,3.75,0,0,0-.17-.36,1.79,1.79,0,0,1,0-.55,2,2,0,0,1,.09-.46,1.29,1.29,0,0,1,.11-.29l.22-.26.14-.3.5-.46.47-.29.47-.33.17,0,.49-.15.31,0,.42-.14A.48.48,0,0,1,653.52,225.73Zm-.74,1,.11.13.17,0a1.72,1.72,0,0,0,.35-.09l.37,0,0-.06a.45.45,0,0,0,0-.06.23.23,0,0,0-.08-.14l-.06-.08c-.1-.14-.17-.2-.19-.19l-.21-.1a.48.48,0,0,1-.12-.15,5.37,5.37,0,0,0-.64,0h-.13l-.22.13-.35.09-.48.19-.25.22-.15.12v0h0l.47.19.14.14.25-.3.07,0,.31.08h0l.37-.06Z" transform="translate(-580.24 -187.23)"/><path d="M659.8,228l-.17.12a1.56,1.56,0,0,0-.4-.07l-.42,0a.53.53,0,0,0-.19-.22l-.12.16-.32.07-.13,0h0l-.24-.05,0,0-.12-.13a.45.45,0,0,1-.17,0l-.16-.06-.12,0q-.49-.17-.49-.56a1.08,1.08,0,0,1,.26-.67,2.66,2.66,0,0,1,.36-.34l.13-.12.3-.18a5.6,5.6,0,0,1,.68-.37,2.26,2.26,0,0,1,.8-.21l.58.13.33-.06a1.55,1.55,0,0,1,.37,0c.09,0,.13.09.13.13a.19.19,0,0,1-.06.13l-.31.19a1.76,1.76,0,0,1-.35.19,2.32,2.32,0,0,1-.61-.06,1,1,0,0,0-.13-.22h0l-.12.13h-.37l-.17,0a.34.34,0,0,0-.19,0,3.75,3.75,0,0,1-.42.26.76.76,0,0,0-.27.25.57.57,0,0,0-.11.31s0,.11.12.18l.22.1.25.14a.76.76,0,0,0,0,.08q0,.13.11.13t.23-.17l.25,0,.37-.06.21,0,.31,0,.33.09.23,0,.23.16a1.59,1.59,0,0,1,.51.33.51.51,0,0,1,.11.21l0,.21a3.75,3.75,0,0,1,.09.44s0,.1,0,.22-.1.41-.24.41l-.15,0a1,1,0,0,1-.13.37l-.37.45a1.17,1.17,0,0,0-.54.2l-.12.08-.16,0-.52.14-.28,0-.38.1-.15,0a3.52,3.52,0,0,1-.46-.05,1,1,0,0,1-.35-.12l-.21-.13a2.46,2.46,0,0,1-.47-.33.68.68,0,0,1-.19-.44s0-.08.14-.15l.17-.16a1.14,1.14,0,0,1,.28-.18l0,0a.42.42,0,0,1,.15.31l0,.21h0a.1.1,0,0,0,0,.09l.23.14.12.08.17.14.24.1.22.12h.24l.15,0a1.7,1.7,0,0,1,.42-.08.63.63,0,0,0,.26-.05l.25-.12.24-.1a1.74,1.74,0,0,0,.32-.42,1.47,1.47,0,0,0,.21-.78.31.31,0,0,0-.06-.18Q659.87,228.18,659.8,228Z" transform="translate(-580.24 -187.23)"/><path d="M666.15,225.73l.21-.13.13.15.13.06a5.73,5.73,0,0,1,.55.54,1,1,0,0,1,.21.3q.05.12.11.3l.09.23,0,0-.19-.06-.24.09-.22,0-.19.05-.42-.28a1.3,1.3,0,0,0-.3.26l-.44-.08-.24,0,0,0h-.56l-.24,0-.3,0-.3.05h-.27a4,4,0,0,1-.51.13,1.66,1.66,0,0,1-.06.3.67.67,0,0,1-.15.21q.21.14.22.2a3,3,0,0,0,.12.55l.12.06,0,.24.2.05a.69.69,0,0,0,.17.35.63.63,0,0,0,.32.12q0,.2.1.24a.51.51,0,0,0,.23.05l.11.17h.12a2.44,2.44,0,0,1,.38.16.37.37,0,0,0,.17,0,1.39,1.39,0,0,0,.33-.08l.41,0,.31-.09a1.4,1.4,0,0,0,.3,0,3.36,3.36,0,0,0,.4-.22,1.45,1.45,0,0,0,.33-.24,2.15,2.15,0,0,0,.22-.31.2.2,0,0,1,.18-.08.33.33,0,0,1,.17.08,1.26,1.26,0,0,1-.08.3q-.27.46-.34.6a.35.35,0,0,0-.14,0,.67.67,0,0,0-.21.13.59.59,0,0,1-.29.09,4.7,4.7,0,0,1-.55.13l-.33,0-.21.06-.38-.06-.22,0h-.11l-.24,0-.47,0H664l-.13-.08-.53-.17-.22-.19-.22-.14c-.12-.07-.18-.13-.19-.17l-.12-.21a1.59,1.59,0,0,0-.22-.24.34.34,0,0,0,.06-.15,3.75,3.75,0,0,0-.17-.36,1.79,1.79,0,0,1,0-.55,2,2,0,0,1,.09-.46,1.29,1.29,0,0,1,.11-.29l.22-.26.14-.3.5-.46.47-.29.47-.33.17,0,.49-.15.31,0,.42-.14A.48.48,0,0,1,666.15,225.73Zm-.74,1,.11.13.17,0a1.72,1.72,0,0,0,.35-.09l.37,0,0-.06a.45.45,0,0,0,0-.06.23.23,0,0,0-.08-.14l-.06-.08c-.1-.14-.17-.2-.19-.19l-.21-.1a.48.48,0,0,1-.12-.15,5.37,5.37,0,0,0-.64,0H665l-.22.13-.35.09-.48.19-.25.22-.15.12v0h0l.47.19.14.14.25-.3.07,0,.31.08h0l.37-.06Z" transform="translate(-580.24 -187.23)"/></g><g id="Layer_2" data-name="Layer 2"><path class="cls-1" d="M580.28,216.36a1.5,1.5,0,0,1,.14-.23l.44-.28a4.14,4.14,0,0,0,.61-.74,2.58,2.58,0,0,1,.35-.29,1,1,0,0,0,.29-.35,2.29,2.29,0,0,1,0-.25,1,1,0,0,1,.41-.69,6.16,6.16,0,0,0,.7-.74l.84-1.53.29-.09.06-.06c0-.11,0-.21,0-.29a.51.51,0,0,1,0-.23l.38-.51,1.52-2.36,0-.15a.37.37,0,0,0-.18-.09l-.17,0-.15,0-.29,0a1.61,1.61,0,0,1-.09-.43,1,1,0,0,1,.2-.35,2.56,2.56,0,0,1,.26-.61l.37-.52a1.37,1.37,0,0,1,.43,0l.67.23,0,0a1.06,1.06,0,0,0,0-.25,1.21,1.21,0,0,0-.08-.35,1,1,0,0,0,.31-.26l.31-.58a2.89,2.89,0,0,1,.6-.66,1.32,1.32,0,0,1,.1-.44,7,7,0,0,1,.59-.55s.15-.32.35-.83q.09-.2.84-1.32l1-2,.41-.44a1.11,1.11,0,0,1,.06-.32l.43-.63a.19.19,0,0,0,0-.11,1.13,1.13,0,0,0,0-.25,1.46,1.46,0,0,0,.29-.43A4.15,4.15,0,0,1,593,196l.31.44a.81.81,0,0,0,.08-.26.94.94,0,0,0-.12-.37,2.22,2.22,0,0,1,.23-.46,1.91,1.91,0,0,0,.29-.51,1.57,1.57,0,0,0,0-.34,1.46,1.46,0,0,1,.17-.34,6.49,6.49,0,0,0,.31-.75q0-.09.17-.41l.66-.06-.06-.2-.4-.18v-.25a1.16,1.16,0,0,0,.34-.41l-.17-.15v-.06a2.46,2.46,0,0,0,.44-.6q.2-.37.35-.61a.76.76,0,0,1-.12-.35v-.58l1.24-.86.29.21a3.49,3.49,0,0,0,.18-.38c.07-.17.14-.26.21-.26a.62.62,0,0,1,.25.06.75.75,0,0,1,.31-.47,1,1,0,0,1,.55-.23q.46,0,.51,1.12a7.24,7.24,0,0,1,.18,1,3,3,0,0,0,.4,1.07,5.68,5.68,0,0,1,.2,1v.37l-.61.32a.89.89,0,0,0,.26.38l.69.21q.29.09.61.9a3,3,0,0,1,.23.69,1,1,0,0,1-.18.38l.32.31a2.28,2.28,0,0,1,.41.41l.18.47.31.77a1.88,1.88,0,0,1,.08.51,1.76,1.76,0,0,1,.54,1q0,.41,0,.43l.34.52.64,1.29-.35.21a1,1,0,0,0,.25.43l.23,0,0,.34a4.36,4.36,0,0,1,1.61,2.89,6.6,6.6,0,0,0,.66,1.42q.83,1.56.92,1.82a3.1,3.1,0,0,0,.34.66l.95,2.1,0,.44q.92.49.92.93,0,.21-.44.43a.67.67,0,0,0,.25.32,1.37,1.37,0,0,0,.31.12q.21.08.46.57a8.49,8.49,0,0,1,.4,1.1q.66,1,.83,1.32a.64.64,0,0,0-.29.49,2.19,2.19,0,0,0,0,.23,4.53,4.53,0,0,1-.74.28,2.62,2.62,0,0,1-.54,0,5.24,5.24,0,0,0-1.07.37,7.4,7.4,0,0,1-.47-1.29,2,2,0,0,0-.29-.69,8.81,8.81,0,0,1-.41-1.27,2.29,2.29,0,0,1,0-.25,1,1,0,0,1-.32-.46,3.86,3.86,0,0,1,0-.47,1.55,1.55,0,0,1,0-.23,1.29,1.29,0,0,1,.15-.51l-.46-.41.26-.31q.15-.12.15-.21a.89.89,0,0,0,0-.21l-.74.06a5,5,0,0,1-.51-.78,7.78,7.78,0,0,1-.25-1l-.23-.54a6.78,6.78,0,0,0-.28-1.16.89.89,0,0,0-.86-.55q-.54,0-.6,1.15l-.15,0a.76.76,0,0,1-.43-.21,2.42,2.42,0,0,0-.92-.4,2.37,2.37,0,0,1-.64-.23,2.23,2.23,0,0,0-.89-.26,6.6,6.6,0,0,0-.84.15l-.44-.08-.49,0h-.41l-.41.06-.72,0-.61,0-.23,0-.95-.21-.46.09-.54-.14a5.89,5.89,0,0,0-.74.17,6.28,6.28,0,0,1-.84.14l-.43-.49a3.43,3.43,0,0,0-1,.35,4.36,4.36,0,0,1-.67.12l-.25,0a2.89,2.89,0,0,1-.46,0,3.48,3.48,0,0,0-.67-.08,3.78,3.78,0,0,0-.77.14,3.59,3.59,0,0,1-.67.12l-.21.37a4.57,4.57,0,0,1-.6.92q-.26.41-.72,1.21l-.28-.06a.34.34,0,0,0-.12.23,1.94,1.94,0,0,0,0,.32c0,.06,0,.15,0,.26a2.65,2.65,0,0,0-.32.41l-.74,1.49-.43.7-.14.21-.84.54a.2.2,0,0,0-.06.17q0,.17.35.46l-.23.72a2.1,2.1,0,0,0-.51.25,1.68,1.68,0,0,0-.44.67,3.19,3.19,0,0,0-.57.28.67.67,0,0,1-.32.15,1.24,1.24,0,0,1-.31-.15.34.34,0,0,0-.2,0l-.21,0A1.54,1.54,0,0,0,580.28,216.36Zm8.45-10.6a1.46,1.46,0,0,1,.41-.18q.11,0,.32.2l.47-.06.18.32a2.86,2.86,0,0,1,.87-.11h1.36a4,4,0,0,1,1,.23,9.23,9.23,0,0,1,1,.11.91.91,0,0,0,.75.47l1-.47.52.11h.87l.34.09.44-.06.41,0,.41,0,.38.11.9-.15.7,0,1.36-.14,1.13.09q.24,0,.25-.18a3.22,3.22,0,0,0-.14-.52,2.17,2.17,0,0,1,0-.37,1.3,1.3,0,0,1-.43-.46,4.57,4.57,0,0,0-.61-1.09,1.54,1.54,0,0,1-.23-.51,1.83,1.83,0,0,0-.25-.55,3.65,3.65,0,0,0,.08-.67,1.79,1.79,0,0,0-.12-.51l-.54.08a4,4,0,0,1-.2-.46l-.11-.38-.34-.47-.38-.67-.17-.29a3.4,3.4,0,0,0-.4-1.13,1.28,1.28,0,0,1-.2-.67l.31-.14a.45.45,0,0,0-.38-.25l-.21,0a4.18,4.18,0,0,0-.21-.41q-.35-.52-.37-.57l-.09-.6-.23-.4-.23-.54-.51-.63-.28-.89-.26-.46a5.58,5.58,0,0,0-.44-.77,1.35,1.35,0,0,0-.52.49,1.88,1.88,0,0,0-.25.92H596q-.26.44-.67,1l-.89,1.68a3,3,0,0,0-.32.74.75.75,0,0,0-.35.43,1.43,1.43,0,0,1-.83.84l.08.43-.23.11h0l-.51,0-.12.2.4.25a5.92,5.92,0,0,1-.54,1.21,4.59,4.59,0,0,1-1.36,1.78q-.15.09-.18.49a1.46,1.46,0,0,1-.14.55l-.41.77-.35.38-.18.43a5.9,5.9,0,0,0-.43.77Q588.84,205.5,588.73,205.76Z" transform="translate(-580.24 -187.23)"/><path class="cls-1" d="M619.35,204.6A3.7,3.7,0,0,0,621,203.5q-1-.26-1-.87,0-.16,0-.39l-.75.18a2,2,0,0,0-.53-.61,5.45,5.45,0,0,1-.59-.75l.08-.57-.38-.22.34-.87h-.1c0-.13,0-.24,0-.34a1.6,1.6,0,0,1,.49-1H619a2.1,2.1,0,0,1,.26-.45l.59-.49.59-.61a2.87,2.87,0,0,1,.47-.18l.2-.43.69-.08a1.34,1.34,0,0,1,.57-.53l.89-.26.51-.24.36-.14a5.42,5.42,0,0,1,1.48-.65,6,6,0,0,1,.69.93l.93-1a.86.86,0,0,1,.63-.22,1.85,1.85,0,0,1,1.13.65,2.35,2.35,0,0,1,.51.39,2.58,2.58,0,0,1,.12.55,2.32,2.32,0,0,0,.36.67q-.16.36-.34.36t-.77-.75l-1.09-.55-.38-.24q-.26,0-.32,1l-.49-.28-.24.39-.12,0a2.27,2.27,0,0,1-.55-.14.6.6,0,0,0-.22-.06,1.56,1.56,0,0,0-.43.1,5.21,5.21,0,0,1-.57.14,1.36,1.36,0,0,0-.53-.18,2.64,2.64,0,0,0-.61.24l-.67.2-.41.22a3.14,3.14,0,0,0-.53.24q-.12.08-.93.81l-.8.6a3.55,3.55,0,0,0-.17.56q-.16.63-.24.89a2.35,2.35,0,0,0,.47.51,1.11,1.11,0,0,1,.38.65,3.1,3.1,0,0,1,.51.3,4,4,0,0,0,.83.41l1.24.32.49,0,.63.22a15.76,15.76,0,0,1,1.7.06,4,4,0,0,0,.53,0,4.66,4.66,0,0,0,1-.34l1.14-.06.65-.16a1.3,1.3,0,0,1,.57.22,4.92,4.92,0,0,0-.39,1,.55.55,0,0,1-.36.41l-1.27.5a3.22,3.22,0,0,0-.42.35,2.14,2.14,0,0,1-.55-.41,1,1,0,0,0-.49-.26l-.3.2q-.43-.85-.57-.85t-.32.85q-.41-.83-.77-.83a.32.32,0,0,0-.24.1L623.1,204l-.41-.12a1.94,1.94,0,0,0-.67.2l.22.43-.08.08h-.26a1.25,1.25,0,0,0-.49.08,7.32,7.32,0,0,0-.65.45q-.91.49-1,.55a4.57,4.57,0,0,0-.39.59,4.92,4.92,0,0,0-.61.65,1.68,1.68,0,0,1-.83.49,4.76,4.76,0,0,1-.51,1.24,7,7,0,0,0-.26.69q0,.14-.08.95l-.12.43.18.49a3.34,3.34,0,0,0,.38,1.14,1.84,1.84,0,0,1,.1.24,1.67,1.67,0,0,0,.65.77,1.63,1.63,0,0,0,.28.55l.57.51a15.19,15.19,0,0,0,1.14,1.11,5,5,0,0,0,1,.39,3.17,3.17,0,0,0,.63,0l.83.22h.61l.67,0,.28,0,.83,0,.41-.18.57-.18.63-.32,1-.3a1.54,1.54,0,0,1,.45-.14h.18a2,2,0,0,1,.28-.39l1.36-.89a4.94,4.94,0,0,0,.83-1,3.3,3.3,0,0,0,.63-2,1.26,1.26,0,0,0-.73-1.09l-.59-.36-.28-.38-.43-.28-.67-.59-.67-.22-.71-.3-.3,0-.34-.22-.73.22a2.5,2.5,0,0,0-.81.2q-.24.06-.93,1.3a5.57,5.57,0,0,1-.32.55l.24.51q0,.45-.67.45l-.3,0a1.92,1.92,0,0,0-.65-.47.57.57,0,0,1-.32-.55,1.09,1.09,0,0,1,.26-.72,9.11,9.11,0,0,1,1.13-1l.75-.65,1.2-.47.49-.28.57-.16.51-.2.63-.08.47-.06.69.16.34,0,.61.24a3.81,3.81,0,0,1,.87.41q.06,1,.51,1a.27.27,0,0,0,.2-.12v-.43l.51.32a7.08,7.08,0,0,0,1.3.69l.43.2a2,2,0,0,0,.66-.16,3,3,0,0,0,.7-.36,6.5,6.5,0,0,1,.79-.49q.63-.3.59-1.34l.12-.73q0-.3-.51-.83a1,1,0,0,1-.32-.55,4.15,4.15,0,0,1,1.26-.51l.34.57a2.64,2.64,0,0,1,1,.38l.12.47.53.08q0,.41,0,.55a3.46,3.46,0,0,1-.36,1.64l-.57.43a3.09,3.09,0,0,1-1.22,1.09l-.32.24L636,209l-.57.38a5.41,5.41,0,0,0-1.32.41.6.6,0,0,0-.26.49,1.58,1.58,0,0,0,.24.63q-.36.26-.38.38a3.1,3.1,0,0,1-.28,1.07l-.77-.08a1,1,0,0,0,.3.71,6,6,0,0,1-.71.63l-.45.47-.77.39a1.87,1.87,0,0,0-.43.53h-.16a2.69,2.69,0,0,0-.51.16l-.08,0-.28.18-.73.32a7.77,7.77,0,0,1-1.62.85l-1,.28-.63.24-1.6.22-1.74.32a2.28,2.28,0,0,1-.73-.24q-.26.32-.43.32l-.49,0-.3,0a1.54,1.54,0,0,1-.83-.22,5.43,5.43,0,0,0-.73-.65l-.22.45a3.51,3.51,0,0,1-1.13-.65l-.85-.75a7,7,0,0,1-.71-1s0-.3.14-.85l0-.06-.08-.2q-.75-.36-.79-.39a.19.19,0,0,1-.06-.14v-.34l0-.22q.57-.08.57-.36t-.43-.32H615a1.12,1.12,0,0,1-.16-.63,2.35,2.35,0,0,1,.22-.67l.12-.43.26-.45a2.92,2.92,0,0,1,.43-1q.37-.45.39-.49a2.8,2.8,0,0,1,.3-.49l.32-.22.24-.3a2.67,2.67,0,0,1,.93-.67,1.13,1.13,0,0,0,.41-.49c.13-.29.2-.44.22-.45l.47-.41A.74.74,0,0,0,619.35,204.6Z" transform="translate(-580.24 -187.23)"/><path class="cls-1" d="M637,216.34a1.52,1.52,0,0,1,.14-.23l.45-.28a4.19,4.19,0,0,0,.62-.74,2.61,2.61,0,0,1,.36-.29,1,1,0,0,0,.29-.36,2.32,2.32,0,0,1,0-.25,1,1,0,0,1,.42-.7,6.16,6.16,0,0,0,.71-.74l.85-1.55.29-.09.06-.06c0-.11,0-.21,0-.29a.51.51,0,0,1,0-.23l.39-.51,1.53-2.39,0-.15a.37.37,0,0,0-.19-.09l-.17,0-.16,0-.29,0a1.63,1.63,0,0,1-.09-.43,1,1,0,0,1,.2-.36,2.61,2.61,0,0,1,.26-.62l.37-.53a1.39,1.39,0,0,1,.43,0l.68.23,0,0a1,1,0,0,0,0-.25,1.24,1.24,0,0,0-.08-.36,1,1,0,0,0,.31-.26l.31-.59a2.92,2.92,0,0,1,.6-.67,1.33,1.33,0,0,1,.1-.45,6.87,6.87,0,0,1,.6-.56s.15-.32.36-.84q.09-.2.85-1.33l1-2,.42-.45a1.12,1.12,0,0,1,.06-.33l.43-.64a.19.19,0,0,0,0-.11,1.18,1.18,0,0,0,0-.25,1.46,1.46,0,0,0,.29-.43,4.41,4.41,0,0,1,.29-.53l.31.45a.83.83,0,0,0,.08-.26.94.94,0,0,0-.12-.37,2.29,2.29,0,0,1,.23-.46,1.92,1.92,0,0,0,.29-.51,1.66,1.66,0,0,0,0-.34,1.46,1.46,0,0,1,.17-.34,6.79,6.79,0,0,0,.31-.76q0-.09.17-.42l.67-.06-.06-.2-.4-.19V192a1.17,1.17,0,0,0,.34-.42l-.17-.15v-.06a2.51,2.51,0,0,0,.45-.6q.2-.37.36-.62a.78.78,0,0,1-.12-.36v-.59l1.26-.87.29.22a3.33,3.33,0,0,0,.19-.39c.07-.18.14-.26.22-.26a.62.62,0,0,1,.25.06.76.76,0,0,1,.31-.48,1,1,0,0,1,.56-.23q.46,0,.51,1.13a7.16,7.16,0,0,1,.19,1,3.07,3.07,0,0,0,.4,1.08,5.78,5.78,0,0,1,.2,1.05v.37l-.62.33a.91.91,0,0,0,.26.39l.7.22q.29.09.62.91a3,3,0,0,1,.23.7,1.05,1.05,0,0,1-.19.39l.33.31a2.3,2.3,0,0,1,.42.42l.19.48.31.77a1.83,1.83,0,0,1,.08.51,1.78,1.78,0,0,1,.54,1c0,.28,0,.42,0,.43l.34.53.65,1.3-.36.22a1,1,0,0,0,.25.43l.23,0,0,.34a4.41,4.41,0,0,1,1.63,2.93,6.75,6.75,0,0,0,.67,1.44q.84,1.58.93,1.84a3.14,3.14,0,0,0,.34.67l1,2.12,0,.45q.93.5.93.95,0,.22-.45.43a.67.67,0,0,0,.25.33,1.37,1.37,0,0,0,.31.12c.14.05.3.24.46.57a8.51,8.51,0,0,1,.4,1.12q.67,1,.84,1.33a.64.64,0,0,0-.29.5c0,.06,0,.14,0,.23a4.62,4.62,0,0,1-.74.28,2.65,2.65,0,0,1-.54,0,5.3,5.3,0,0,0-1.09.37,7.56,7.56,0,0,1-.48-1.3,2.1,2.1,0,0,0-.29-.7,8.8,8.8,0,0,1-.42-1.29,2.46,2.46,0,0,1,0-.25,1,1,0,0,1-.32-.46,3.67,3.67,0,0,1,0-.48,1.64,1.64,0,0,1,0-.23,1.29,1.29,0,0,1,.15-.51l-.46-.42.26-.31c.1-.08.16-.15.16-.22a.88.88,0,0,0,0-.22l-.74.06a5.06,5.06,0,0,1-.51-.79,7.87,7.87,0,0,1-.25-1l-.23-.54a6.9,6.9,0,0,0-.28-1.18A.9.9,0,0,0,661,207q-.54,0-.6,1.16l-.15,0a.76.76,0,0,1-.43-.22,2.46,2.46,0,0,0-.93-.4,2.39,2.39,0,0,1-.65-.23,2.26,2.26,0,0,0-.9-.26,6.66,6.66,0,0,0-.85.15l-.45-.08-.5,0h-.42l-.42.06-.73,0-.62,0-.23,0-1-.22-.46.09-.54-.14a6,6,0,0,0-.74.17,6.38,6.38,0,0,1-.85.14l-.43-.5a3.47,3.47,0,0,0-1,.36,4.42,4.42,0,0,1-.68.12l-.25,0a2.92,2.92,0,0,1-.46,0,3.52,3.52,0,0,0-.68-.08,3.83,3.83,0,0,0-.77.14,3.64,3.64,0,0,1-.68.12l-.22.37a4.62,4.62,0,0,1-.6.93q-.26.42-.73,1.22l-.28-.06a.35.35,0,0,0-.12.23,2.06,2.06,0,0,0,0,.33c0,.06,0,.15,0,.26a2.63,2.63,0,0,0-.33.42l-.74,1.5-.43.71-.14.22-.85.54a.2.2,0,0,0-.06.17q0,.17.36.46l-.23.73a2.16,2.16,0,0,0-.51.25,1.7,1.7,0,0,0-.45.68,3.23,3.23,0,0,0-.57.28.68.68,0,0,1-.33.15,1.25,1.25,0,0,1-.31-.15.34.34,0,0,0-.2,0l-.22,0A1.56,1.56,0,0,0,637,216.34Zm8.55-10.72a1.49,1.49,0,0,1,.42-.19c.07,0,.18.07.32.2l.48-.06.19.33a2.89,2.89,0,0,1,.88-.11h1.38a4,4,0,0,1,1,.23,9.33,9.33,0,0,1,1,.11.92.92,0,0,0,.76.48l1-.48.53.11h.88l.34.09.45-.06.42,0,.42,0,.39.11.91-.15.71,0,1.38-.14,1.15.09c.16,0,.25-.06.25-.19a3.29,3.29,0,0,0-.14-.53,2.21,2.21,0,0,1,0-.37,1.3,1.3,0,0,1-.43-.46,4.67,4.67,0,0,0-.62-1.1,1.54,1.54,0,0,1-.23-.51,1.83,1.83,0,0,0-.25-.56,3.74,3.74,0,0,0,.08-.68,1.8,1.8,0,0,0-.12-.51l-.54.08a4.1,4.1,0,0,1-.2-.46l-.11-.39-.34-.48-.39-.68-.17-.29a3.46,3.46,0,0,0-.4-1.15,1.31,1.31,0,0,1-.2-.68L657,197a.45.45,0,0,0-.39-.25l-.22,0a4.49,4.49,0,0,0-.22-.42q-.36-.53-.37-.57l-.09-.6-.23-.4-.23-.54-.51-.64-.28-.9-.26-.46a5.75,5.75,0,0,0-.45-.77,1.38,1.38,0,0,0-.53.5,1.91,1.91,0,0,0-.25.93h-.09q-.26.45-.68,1l-.9,1.7a3.07,3.07,0,0,0-.32.74.76.76,0,0,0-.36.43,1.44,1.44,0,0,1-.84.85l.08.43-.23.11h0l-.51,0-.12.2.4.25a6,6,0,0,1-.54,1.22,4.65,4.65,0,0,1-1.38,1.8q-.15.09-.19.5a1.45,1.45,0,0,1-.14.56l-.42.77-.36.39-.19.43a6,6,0,0,0-.43.77Q645.69,205.36,645.58,205.62Z" transform="translate(-580.24 -187.23)"/></g></svg>