<svg xmlns="http://www.w3.org/2000/svg" viewBox="0 0 193.76 100.28"><defs><style>.cls-1{fill:#f15a24;}</style></defs><title>logo</title><g id="Layer_1" data-name="Layer 1"><path d="M580.36,275.24l.44-.13a7.36,7.36,0,0,0-.17-.85h-.37q.06-.3.14-1.19l.13-.4q.3-1.27.31-1.32.08-.25.28-.71h.62l.1-.5q-.47,0-.47-.25a6.1,6.1,0,0,1,.86-1.66l.24-.38.57-.69.37-.61a3.12,3.12,0,0,1,.3-.28.71.71,0,0,0,.35.16.69.69,0,0,0,.3-.11l-.1-.64L585,265a7.34,7.34,0,0,1,1-.88l.35-.34.35-.24.24-.27,1.18-.75a10.91,10.91,0,0,1,.93-.74,1.39,1.39,0,0,0,.42.33q.33-.16.35-.24s.06-.12.08-.33a7.41,7.41,0,0,1,.93-.44l.52-.25.85-.28.41-.16a3.22,3.22,0,0,0,.86-.14q.84-.24,1.81-.44l.35-.11.41,0h.81l.52-.18.11,0s.45.22,1.23.65q.44-.59.55-.59h0a7.05,7.05,0,0,0,1,.06l1.25.06a4.4,4.4,0,0,0,1.08.16l.18.2h.07a.6.6,0,0,1,.28-.16q.13,0,.35.24a.39.39,0,0,1-.16.25l-.37.2a2.88,2.88,0,0,0-.45.3,1.51,1.51,0,0,1-.62.37,5.65,5.65,0,0,1-.85-.14l-.62-.23-.91-.08a2.07,2.07,0,0,0-.69-.31.18.18,0,0,0-.13.06q-.2.18-.24.17l-.16-.07-.67-.13-.45-.44-.52.55a.47.47,0,0,1-.33.13l-.47-.06-.95.31a2.08,2.08,0,0,0-.58-.2,2.48,2.48,0,0,0-.76.34,3.14,3.14,0,0,1-.79.07q0,.25-.13.31-.59.2-1.2.45a5.61,5.61,0,0,0-.93.55l-.75.45a1.3,1.3,0,0,0-.25.33,2,2,0,0,0-.48-.08h-.18a1.23,1.23,0,0,1-.34.65l-.42.33a1,1,0,0,1-.33.13s-.08.06-.16.18a2.29,2.29,0,0,1-.54.54l-.35-.11.07.38-.42.34s-.16.21-.4.55a9.16,9.16,0,0,0-.59.84q-.3.51-.59.93l-.34,0a1.31,1.31,0,0,1-.25.44l0,0h-.13l0,.16h.17a1.48,1.48,0,0,1,0,.26l-.23.42q-.54,1.36-.56,1.4l-.22.26a6.19,6.19,0,0,1,.06.78,2.86,2.86,0,0,1-.27.81,3.17,3.17,0,0,0-.21,1q-.42.1-.5.35.47.28.47.48v0q-.1.88-.1,1a6.31,6.31,0,0,0,.08.67q-.41.24-.41.55a.67.67,0,0,0,.2.42l.28,0a4.3,4.3,0,0,0,.17.69,2.33,2.33,0,0,1,.07.35l-1.39.35h-.08a3.83,3.83,0,0,0,1.18.17l.42.1a3.19,3.19,0,0,0,.28,1.37v0l-.17.93a.14.14,0,0,0,.16.16.58.58,0,0,0,.35-.17,4.12,4.12,0,0,0,.3.45,2.16,2.16,0,0,1,.33.62l.11.52q0,.13.3.3a2.35,2.35,0,0,1,.65.57,5.74,5.74,0,0,0,.68.68l.25.23.25.23.36.13a.69.69,0,0,1,.33.16l.13.2.1-.11a4.8,4.8,0,0,0,1.3,1l.72.34a4.25,4.25,0,0,0,.54.23q.34,0,.88-.72a1.68,1.68,0,0,0,1.12.37,1,1,0,0,0,.35-.06l.33-.13.24.06h.17l1.67-.06.54,0,.58,0h.23a7.08,7.08,0,0,0,.81-.07.91.91,0,0,1,.24-.25l1.32-.16.92-.17a2.11,2.11,0,0,1,.47.18h.08q.27,0,.37-.48a3.82,3.82,0,0,0,.48,0,7.62,7.62,0,0,0,1-.2l.72-.08q.81-.25,1.1-.31a.77.77,0,0,1,0-.16q0-.24.16-.28l1.19-.34-1.2-.74,1.18-.67-1.22-1.44,0-.08a2.27,2.27,0,0,0,.13-.82q0-.14-.16-1l0-1.56v-.14q0-.45.25-.55l.88-.35s0,0,0,0l-.06,0a2,2,0,0,0-1-.25h-.24a1.48,1.48,0,0,0-.51-1,.46.46,0,0,0-.25-.08l-.33,0-.21-.14h0l-.37.1a11.62,11.62,0,0,1-1.47,0,2.48,2.48,0,0,1-.4-.08.47.47,0,0,1-.28.13q-.23,0-.23-.21t.44-.55a1.39,1.39,0,0,1,.41-.25h.42a3.06,3.06,0,0,1,.58,0l.74.25h.1a.84.84,0,0,0,.5-.27,4.74,4.74,0,0,0,.82.11h.21l.4,0,.54.07h0l.93-.16a1.78,1.78,0,0,1,.28.59v0q-.1.76-.1.79s0,.12,0,.21a6.72,6.72,0,0,1,.08,1q0,.25,0,1.2a5.76,5.76,0,0,1-.13.81q-.06.24-.1.54h-.33a3.15,3.15,0,0,0-.21.69,3.51,3.51,0,0,0,.07.51,1,1,0,0,0,.38-.21.89.89,0,0,0,.2-.34.32.32,0,0,1,.23.16l-1.19.47,1.18,1-.06.1a1.38,1.38,0,0,0-.1.35l-.3.13a1.3,1.3,0,0,0,.3.45.38.38,0,0,0,.18,0,1.44,1.44,0,0,1,.16.34s0,.2,0,.58v.1a1.21,1.21,0,0,0,.07.5l.13.27-.1.31a.57.57,0,0,0,0,.18,2.12,2.12,0,0,0,0,.23l-.42.1a1,1,0,0,1-.3.37l-1.19,0a7.67,7.67,0,0,1-1.25.28,2.56,2.56,0,0,1-.57-.08l-.18.17q-.38,0-1.8.27h-.2l-.23,0a2.82,2.82,0,0,0-.84.28,5.93,5.93,0,0,1-1.12.06l-.76.18a3.5,3.5,0,0,1-.72.08l-1.15.27-.52,0q-1.32.21-2.39.31-.23-.24-.34-.23l-.27,0-.44,0-.21.16h-1.59l-.44,0q-.35,0-1-.06a1.39,1.39,0,0,0-.42-.33,3.42,3.42,0,0,0-.5-.07l-.08.24a4.38,4.38,0,0,1-1.9-.89,7.09,7.09,0,0,0-.76-.71,1.21,1.21,0,0,0-.31-.61h-.33a.66.66,0,0,1-.38-.1,5.87,5.87,0,0,1-.81-.92q-.18-.21-.58-.61a2.84,2.84,0,0,0,.14-.69q0-.4-.35-.4a1.71,1.71,0,0,0-.35,0,4.27,4.27,0,0,0-.37-.68l-.07-.24-.62-1.74a3.06,3.06,0,0,1-.2-.93v-.06l0-.31a5,5,0,0,0-.11-.52s0-.43-.06-1.22a3.22,3.22,0,0,0-.07-.54,2,2,0,0,1,0-.28A.78.78,0,0,1,580.36,275.24Z" transform="translate(-580.24 -187.23)"/><path d="M610.07,273a1.37,1.37,0,0,1,.27-.47,2.8,2.8,0,0,1,.74-.44,3.21,3.21,0,0,1,.69-.38.43.43,0,0,1,.38.18l.06.24.11.44a1,1,0,0,0,0,.24.48.48,0,0,0,.16.3,4.15,4.15,0,0,0,.76-.35l.59-.2.59-.4.38-.16.34-.16.31.06h0a9.87,9.87,0,0,0,1-.3,1.94,1.94,0,0,1,.42,0,.6.6,0,0,1,.34.07l.3.28.2,0,.41-.2h.07a.69.69,0,0,1,.42.21,1.14,1.14,0,0,1,.33.61,7.67,7.67,0,0,1-.85.67q-.31.4-.45.4t-.59-.45l-.42,0a1.94,1.94,0,0,1-.61-.17,3,3,0,0,0-.69-.17.54.54,0,0,1-.47.31,3.37,3.37,0,0,0-.5.06l-.57.17a.63.63,0,0,1-.23-.1q-.28.25-1,.76a1.29,1.29,0,0,0-.44,1.15v.5q0,.25,0,.42t-.33.47a.71.71,0,0,1,.24.44,1.25,1.25,0,0,1,0,.24l.21.06,0,.42.07,2.53-.06.16-.37.2a2.39,2.39,0,0,0-.79.21,2.88,2.88,0,0,0,.89.18l.24-.06a2.73,2.73,0,0,1,.14.64.56.56,0,0,1-.33.51,2.73,2.73,0,0,1-.72.14,3.39,3.39,0,0,0-.61.35.35.35,0,0,1-.2.06q-.34,0-.34-.3a6.76,6.76,0,0,1,.21-.81.53.53,0,0,0,0-.17s0-.23-.07-.64a1.42,1.42,0,0,1,.06-.24l.34-.1a2.12,2.12,0,0,0,0-.23.74.74,0,0,0-.21-.44v-.35a6.31,6.31,0,0,0-.08-.67q0-.47,0-.79.52-.18.52-.45a.84.84,0,0,0,0-.23,1.21,1.21,0,0,1-.28,0,.42.42,0,0,1-.24-.11v-1.42c0-.08,0-.16,0-.25v-.23a1.52,1.52,0,0,1,.18-.61.61.61,0,0,1-.21-.27s0-.33-.06-.92A1.26,1.26,0,0,0,610.07,273Z" transform="translate(-580.24 -187.23)"/><path d="M619.88,273q0-.2.42-.54a5.82,5.82,0,0,1,1.61-.95l.42.44a4.32,4.32,0,0,0-.23,1,6.16,6.16,0,0,0-.08.64v.52l-.24.34a1,1,0,0,0,.31.68.75.75,0,0,0-.08.18l0,.69v.16a2.63,2.63,0,0,0,0,.33l-.07,2.7a8.89,8.89,0,0,0,.18,1l0,.59a4.59,4.59,0,0,1,.08.5.73.73,0,0,1-.25.54,5.06,5.06,0,0,1-.54.37,8.68,8.68,0,0,1-.81.59.7.7,0,0,1-.25.06.49.49,0,0,1-.34-.17c0-.24.06-.39.07-.47a3.55,3.55,0,0,1,.16-.62v-.69l.1-1.39v-.25q0-.23.23-.23h.14a1.27,1.27,0,0,0,.07-.31,2.18,2.18,0,0,0-.08-.44,3.39,3.39,0,0,1-.08-.4l-.24-.18a3.79,3.79,0,0,0,0-.47s0-.12,0-.21v-.2a.8.8,0,0,1,.14-.41.55.55,0,0,1-.14-.35v-.21l0-.33q.92-.17.92-.3l0,0a.77.77,0,0,0-.52-.18l-.55,0a1.82,1.82,0,0,0,0-.28s0-.49-.11-1.4Q620.13,273.14,619.88,273Zm.25-5.71h0q0-.5.72-1.08a2.24,2.24,0,0,0,.37-.37l.28-.23a5,5,0,0,1,.65-.86.65.65,0,0,1,.35-.16,1.06,1.06,0,0,1,.33.21.58.58,0,0,1,.27.48.48.48,0,0,1-.25.4,12.79,12.79,0,0,0-1.25,1l-.4.25-.5.34a2.2,2.2,0,0,1-.45.21Q620.13,267.51,620.13,267.3Z" transform="translate(-580.24 -187.23)"/><path d="M626.05,259.82a1.11,1.11,0,0,0,.35-.16,3,3,0,0,1,.52-.3,2,2,0,0,0,.71-.55h.13q.33,0,.33.38v0a1.33,1.33,0,0,1,0,.18v.08l.14.5-.06,1.19q0,1.15,0,1.2a1,1,0,0,1-.24.38l-.08.45.3,0a2.5,2.5,0,0,1,.08.51.84.84,0,0,1-.3.57q0,.4,0,.51a.43.43,0,0,0,.18.31q0,.27,0,.4l-.07,1.77v1.8a1.45,1.45,0,0,1-.25.55.6.6,0,0,0-.08.28s.07.25.2.71v.07a.72.72,0,0,1-.3.48l.31.68.16.11v.88l0,3.19-.25.16a3.92,3.92,0,0,1,0,.51s0,.26-.08.68v.38l.44.06,0,.1.25,2.31,0,.59.08.42a3.13,3.13,0,0,0-.28.5.38.38,0,0,0,.07.18,5.85,5.85,0,0,0-.79.42l-.33.18h-.28a1,1,0,0,1-.55.27.65.65,0,0,1-.2-.06q0-.21,0-.35a2.64,2.64,0,0,0-.06-.44,1,1,0,0,1,0-.23,4,4,0,0,1,.11-.44l0-.31.06-.42,0-.27,1.19-.76-1.15-.79,0-.18.1-.51.13-.35a5,5,0,0,0-.25-.51.35.35,0,0,1,0-.16,5.65,5.65,0,0,1,.21-.59,2.44,2.44,0,0,0,.17-.76l-.33-.17v-.48q0-.33,0-.42s.05-.24.16-.62a1.16,1.16,0,0,0,0-.23q0-.5-.06-1.1a3.21,3.21,0,0,1,0-.4,2.21,2.21,0,0,1,.23-.64,3.05,3.05,0,0,1,.08-.69l-.3-.35v-3.12a.72.72,0,0,0,.24-.28q.08-.24.23-.55a1.91,1.91,0,0,1-.48-.25,3,3,0,0,0,.1-.5c0-.09-.08-.19-.25-.28a2.51,2.51,0,0,1,0-.51v-.58a1.15,1.15,0,0,1,.2-.44.19.19,0,0,0,0-.11,2.19,2.19,0,0,0-.08-.28,1.81,1.81,0,0,0-.09-.26l0-.08,1.06-.75-.72-1a3.25,3.25,0,0,1-.55-.86,2.59,2.59,0,0,1,.08-.47A2.94,2.94,0,0,0,626.05,259.82Z" transform="translate(-580.24 -187.23)"/><path d="M631.86,259.82a1.11,1.11,0,0,0,.35-.16,3,3,0,0,1,.52-.3,2,2,0,0,0,.71-.55h.13q.33,0,.33.38v0a1.33,1.33,0,0,1,0,.18v.08l.14.5-.06,1.19q0,1.15,0,1.2a1,1,0,0,1-.24.38l-.08.45.3,0a2.5,2.5,0,0,1,.08.51.84.84,0,0,1-.3.57q0,.4,0,.51a.43.43,0,0,0,.18.31q0,.27,0,.4l-.07,1.77v1.8a1.45,1.45,0,0,1-.25.55.6.6,0,0,0-.08.28s.07.25.2.71v.07a.72.72,0,0,1-.3.48l.31.68.16.11v.88l0,3.19-.25.16a3.92,3.92,0,0,1,0,.51s0,.26-.08.68v.38l.44.06,0,.1.25,2.31,0,.59.08.42a3.13,3.13,0,0,0-.28.5.38.38,0,0,0,.07.18,5.85,5.85,0,0,0-.79.42l-.33.18h-.28a1,1,0,0,1-.55.27.65.65,0,0,1-.2-.06q0-.21,0-.35a2.64,2.64,0,0,0-.06-.44,1,1,0,0,1,0-.23,4,4,0,0,1,.11-.44l0-.31.06-.42,0-.27,1.19-.76-1.15-.79,0-.18.1-.51.13-.35a5,5,0,0,0-.25-.51.35.35,0,0,1,0-.16,5.65,5.65,0,0,1,.21-.59,2.44,2.44,0,0,0,.17-.76l-.33-.17v-.48q0-.33,0-.42s.05-.24.16-.62a1.16,1.16,0,0,0,0-.23q0-.5-.06-1.1a3.21,3.21,0,0,1,0-.4,2.21,2.21,0,0,1,.23-.64,3.05,3.05,0,0,1,.08-.69l-.3-.35v-3.12a.72.72,0,0,0,.24-.28q.08-.24.23-.55a1.91,1.91,0,0,1-.48-.25,3,3,0,0,0,.1-.5c0-.09-.08-.19-.25-.28a2.51,2.51,0,0,1,0-.51v-.58a1.15,1.15,0,0,1,.2-.44.19.19,0,0,0,0-.11,2.19,2.19,0,0,0-.08-.28,1.81,1.81,0,0,0-.09-.26l0-.08,1.06-.75-.72-1a3.25,3.25,0,0,1-.55-.86,2.59,2.59,0,0,1,.08-.47A2.94,2.94,0,0,0,631.86,259.82Z" transform="translate(-580.24 -187.23)"/><path d="M645.83,272.22l.45-.28a3.06,3.06,0,0,0,.3.33l.3.14a12.52,12.52,0,0,1,1.22,1.19,2.21,2.21,0,0,1,.47.67q.11.27.24.65.08.2.2.51l-.1.1a2.76,2.76,0,0,1-.42-.13l-.54.2-.48-.08-.42.11a10.12,10.12,0,0,0-.92-.62,2.87,2.87,0,0,0-.67.58l-1-.17a4.06,4.06,0,0,0-.54,0l-.07-.06q-.23,0-1.23,0l-.52.06-.65.06-.67.11h-.59a8.92,8.92,0,0,1-1.12.3,3.58,3.58,0,0,1-.14.67,1.48,1.48,0,0,1-.34.47q.45.31.48.44a6.42,6.42,0,0,0,.27,1.22l.25.14-.07.52.44.11a1.53,1.53,0,0,0,.37.78,1.39,1.39,0,0,0,.71.25q.07.44.23.52a1.11,1.11,0,0,0,.51.11l.24.37.27,0a5.4,5.4,0,0,1,.85.35.81.81,0,0,0,.37.08,3.06,3.06,0,0,0,.72-.17l.91-.1.69-.2a3.09,3.09,0,0,0,.67-.08,7.46,7.46,0,0,0,.88-.5,3.19,3.19,0,0,0,.72-.52,4.79,4.79,0,0,0,.48-.68.44.44,0,0,1,.4-.17.72.72,0,0,1,.37.18,2.77,2.77,0,0,1-.18.67q-.59,1-.75,1.33a.77.77,0,0,0-.31-.08,1.48,1.48,0,0,0-.47.28,1.31,1.31,0,0,1-.64.2,10.39,10.39,0,0,1-1.22.28,5.92,5.92,0,0,0-.74.1l-.45.14-.84-.13-.5.08H643l-.52,0q-.18,0-1-.1l-.27,0-.3-.18q-1.06-.33-1.18-.38a5.92,5.92,0,0,1-.48-.42l-.5-.31q-.4-.24-.42-.37l-.25-.45a3.48,3.48,0,0,0-.48-.54.75.75,0,0,0,.14-.34,8.44,8.44,0,0,0-.37-.79,4,4,0,0,1-.1-1.2,4.35,4.35,0,0,1,.2-1,2.82,2.82,0,0,1,.24-.64l.48-.57.31-.67,1.1-1,1-.64,1-.72.38-.07,1.08-.34.69-.06a7.21,7.21,0,0,1,.92-.31A1.06,1.06,0,0,1,645.83,272.22Zm-1.64,2.12.24.3.38-.07a3.8,3.8,0,0,0,.76-.2l.81.07s0,0,.07-.14a.91.91,0,0,0,0-.14.51.51,0,0,0-.17-.31l-.14-.17q-.34-.45-.42-.42l-.47-.23a1.07,1.07,0,0,1-.27-.33,11.83,11.83,0,0,0-1.4-.06h-.28l-.48.28a6.21,6.21,0,0,1-.78.2q-.59.21-1,.41-.1.07-.55.48l-.33.25v.08l0,0,1,.41.31.31.55-.67a.24.24,0,0,1,.16-.06l.69.18h0a4.9,4.9,0,0,0,.81-.14A2.55,2.55,0,0,1,644.19,274.35Z" transform="translate(-580.24 -187.23)"/><path d="M653.69,275l.5.1.1-.1-.14-.74.37-.23s.31-.29.81-.81l.38-.27a.81.81,0,0,1,.44-.24,3.25,3.25,0,0,1,.5.07l.2.16a2.37,2.37,0,0,1,.64-.33v-.37a2.53,2.53,0,0,1,.65-.28l.65-.23.48,0a2.35,2.35,0,0,1,.4-.11.71.71,0,0,1,.34.16l.54.35.28-.35a3.85,3.85,0,0,0,.57.14,7.59,7.59,0,0,1,1,.2l.34.21a.25.25,0,0,0,.16,0,.93.93,0,0,0,.52-.24,1.53,1.53,0,0,1-.21-.31l-.08-.88-.07-.28a4.2,4.2,0,0,0,.86-.67q0-.11-.51-.62a1.79,1.79,0,0,1-.33-1.22l.35-.18a1.29,1.29,0,0,1-.17-.54,4.37,4.37,0,0,1-.23-.89l0-.4q0-.42,0-1.09a3.09,3.09,0,0,1,.11-.68l-.16-.81a.88.88,0,0,1,.08-.27l.25-.16q-.11-.24-.16-.21t-.38-.08l-.08,0,0,0,1.15-.75-.3-.35-.1-.67q0-.24-.47-.38-.68-.24-.68-.34t.16-.23a3.85,3.85,0,0,1,1-.28,2,2,0,0,1,1.36-.52,1.68,1.68,0,0,1,.11.65l0,.27h0l-.1.62v.41l0,.24V263a.94.94,0,0,1-.06.28c-.08.27-.13.42-.13.44l.06,1-.28.52a3.19,3.19,0,0,0,.35.84l-.13.52.06.41a2.42,2.42,0,0,0-.1.38,2.61,2.61,0,0,0,.1.62,1.52,1.52,0,0,1,0,.27.49.49,0,0,1-.08.24l-.31.06a1.29,1.29,0,0,0-.16.48,2,2,0,0,0,0,.21q.48.3.51.55s0,.31-.07.84a.67.67,0,0,0,0,.13,6.14,6.14,0,0,0,.06.81,1.47,1.47,0,0,1,0,.25.39.39,0,0,1,0,.08l0,.25v.34a1.88,1.88,0,0,0-.18.37l0,.75V274l0,.84.1.95v.3l.06.67,0,.69.21,1.23v.55a7.41,7.41,0,0,1,.21,1q0,.33,0,.61a.65.65,0,0,1,.24.47v.18a4.22,4.22,0,0,1-1,.17,9.6,9.6,0,0,1-1,.18l-.2-.17a2.34,2.34,0,0,1-.67.34q-.13,0-1.19.24a10.44,10.44,0,0,1-2.18.38,12.07,12.07,0,0,1-1.27.16,8.82,8.82,0,0,1-2-.18l-.25-.41a1.65,1.65,0,0,1-.52.23q-.08,0-.16-.17s0-.11-.06-.25a.5.5,0,0,0-.16-.23,1.08,1.08,0,0,1-.42.13.51.51,0,0,1-.35-.14,10.42,10.42,0,0,0-.82-.65,1.91,1.91,0,0,0,0-.37.67.67,0,0,0-.25-.51,2.19,2.19,0,0,1-.34-.33l0-.27q-.21-1-.21-1.12a2.29,2.29,0,0,1,.08-.57,2.36,2.36,0,0,0,.07-.67l.24-.44a10.53,10.53,0,0,1,.65-1.49A3.33,3.33,0,0,1,653.69,275Zm.79,4.62a.86.86,0,0,1,.34.27l.13.31.47.64a4.41,4.41,0,0,0,.55.5l.35.35.38.2a3.21,3.21,0,0,0,.51.35q.25,0,.41-.72a1.85,1.85,0,0,0,.91.3l1.22,0h.58l1.25-.28a2.26,2.26,0,0,0,.86-.25,6.07,6.07,0,0,1,.57-.75.63.63,0,0,1-.1-.28l.07-.38v-2a5.68,5.68,0,0,1-.11-.68l.48-.18a1.25,1.25,0,0,1-.08-.4q0-.11,0-.28l-.31-.08.86-.71-.85-1v-.28a.42.42,0,0,0-.1-.17v-.48a1.1,1.1,0,0,0-.33-.1,2.24,2.24,0,0,0-.42.16H662a.91.91,0,0,1-.59-.14l-.5-.45-1-.3-.55-.37a8,8,0,0,1-.62.75h-.16a2,2,0,0,0-.71.21l-.38,0q-.34,0-.81.52l-.47-.07a1.59,1.59,0,0,1-.33.34l-.47.27q-.55.48-.52.88a2.48,2.48,0,0,0-.67.67l-.38.58a2.24,2.24,0,0,0-.07.69,2.08,2.08,0,0,0,.1.55l.06.31.13.35.13.37a1.64,1.64,0,0,1,.27.57Q654.5,279.46,654.49,279.61Z" transform="translate(-580.24 -187.23)"/><path d="M675.27,273.65a.36.36,0,0,1-.21-.3,6.7,6.7,0,0,1,.17-.71,12.74,12.74,0,0,1,.35-1.4l.61,0a1.87,1.87,0,0,0-.2-.55.47.47,0,0,1,0-.21,6.26,6.26,0,0,1,.35-1.15,4.13,4.13,0,0,1,.35-1.06l.47-.78a1,1,0,0,1,.25.06l.24.07a.53.53,0,0,0,.28-.16.46.46,0,0,0,.24-.08.51.51,0,0,0,.1-.23l-.34,0-.14-.51q0-.14.42-.57a2.11,2.11,0,0,0,.23-.28,2.47,2.47,0,0,1,.25-.38,1.42,1.42,0,0,0,.34-.51l.1-.1a2.14,2.14,0,0,1,.41-.48l.58-.4,0,0,.4-.2,0-.33,1.83-1.46a2.64,2.64,0,0,1,.42-.25l.38-.25.35-.1a3,3,0,0,1,.62-.38,1.09,1.09,0,0,1,.41.14l.2-.52.58.11,0-.27.62-.2a3.63,3.63,0,0,1,1-.24l.42-.13a4.46,4.46,0,0,0,.55-.13,1.4,1.4,0,0,0,.34-.25h.34a2.91,2.91,0,0,0,.71-.18,1.47,1.47,0,0,1,.47-.07,1.5,1.5,0,0,1,.41.06.46.46,0,0,0,.2,0l1.88-.06a1.44,1.44,0,0,1,1,.52q.31.34.38.34.25,0,.48-.59a1.49,1.49,0,0,0,.76.3h.2l.38-.08.45.16a19.34,19.34,0,0,1,2.41.72V261h0l-.28.3c-.35.37-.58.55-.69.55a1.16,1.16,0,0,1-.47-.18q-.81-.33-1.86-.71l-.18-.47-.37.08-.27.07s-.35-.1-.92-.3a.74.74,0,0,1-.33-.2l-.13-.2a2.35,2.35,0,0,1-.59.18H690.4l-.35,0a4.44,4.44,0,0,0-1,.24l-.86.1-.86.17a2.07,2.07,0,0,0-.55.24l-.71.33-.51.35a4.93,4.93,0,0,0-2.08,1.36,3.39,3.39,0,0,0-.84.4,1,1,0,0,1-.06.33,3.29,3.29,0,0,0-.75.61l-.34.31a3.15,3.15,0,0,1-.55.65.44.44,0,0,1-.24.08h-.17a.63.63,0,0,1,.08.2s-.23.42-.69,1.18a8.72,8.72,0,0,0-.62.69L679,268l-.3.71-.13.41a5.5,5.5,0,0,0-.5,1q-.06.23-.18.85-.21.84-.24.92t-.47.28a.91.91,0,0,0,.33.61,1.83,1.83,0,0,0-.14.48,3.42,3.42,0,0,0,.11.78v.06a.19.19,0,0,1-.13.18l-1.12.42a.16.16,0,0,0-.13.16.3.3,0,0,0,.07.16,2.74,2.74,0,0,1,.27.48,1.2,1.2,0,0,0,.14.31l.64.52.24.65a1.56,1.56,0,0,1,.13.51h-.08l.08.48.2.06a.94.94,0,0,1,.16.44h0l.06.37a2.18,2.18,0,0,0,.13.54l.25.51a6.28,6.28,0,0,1,.4,1.22q0,.14-.28.14l.14.35a1.17,1.17,0,0,1,.44,0,1.46,1.46,0,0,1,.27.14q.28.33.54.67l.42.38.33.41a6.11,6.11,0,0,1,.78.48.61.61,0,0,0,.23.5,2.53,2.53,0,0,0,.68.34l.64.38.48.23.44.23.47.18.33.24a.92.92,0,0,1,.28.24.56.56,0,0,1,.38-.2l1.64.44h1.85a.42.42,0,0,1,.22.08,1.42,1.42,0,0,0,.41.16.7.7,0,0,0,.24-.18.33.33,0,0,1,.17-.1h.27l1.15-.16a8.75,8.75,0,0,0,1.28-.28,3.73,3.73,0,0,0,.62.16,1.63,1.63,0,0,0,.71-.33l.67-.16a5.11,5.11,0,0,0,.81-.31l.33.07a4.58,4.58,0,0,0,1.2-.31l1.23-.42a1.92,1.92,0,0,0,.23-.27l.54-.27a1.65,1.65,0,0,1,.82-.25,1.39,1.39,0,0,1,.34.08c0-.25.05-.4.13-.45a2.07,2.07,0,0,1,.48-.24,2.61,2.61,0,0,1,.51-.27.65.65,0,0,1,.3.13,2.73,2.73,0,0,1-.3,1.16,1.78,1.78,0,0,0-.2.55.4.4,0,0,1-.17.21,6.81,6.81,0,0,1-1.19.25,3.76,3.76,0,0,1-.67.24l-.76.18-.62.13-.67.18-.59.08a6.71,6.71,0,0,1-1,.27h-1v.08q0,.27-.34.27h-.11l-.28,0-.16,0-1.74.4a7.93,7.93,0,0,1-1.27.14l-1.08.06h-.06a.44.44,0,0,1-.35.21l-1.12,0a3,3,0,0,1-.95-.25,1,1,0,0,0-.35-.06.53.53,0,0,0-.38.25l-.69,0q-.25-.4-.48-.4h-.57l-.25,0a3,3,0,0,1-1.35-.44,13.07,13.07,0,0,0-1.36-.65q-1.18-.74-1.56-.92l-.1-.25h.31v-.2q0-.47-.35-.51-.21.24-.35.24a1.9,1.9,0,0,1-.5-.35l-1-.67-.3-.41-.14-.16L677,282a8.33,8.33,0,0,1-1.47-3.37l.28-.17v-.27l-.31-.21a1.47,1.47,0,0,0-.13-.61l-.08-.3a1.32,1.32,0,0,1-.17-.31,4.88,4.88,0,0,1,0-.54l-.06-.62.08-.28a2.22,2.22,0,0,1-.14-.54,1.06,1.06,0,0,1,.21-.62A2.67,2.67,0,0,0,675.27,273.65Z" transform="translate(-580.24 -187.23)"/><path d="M703.93,260.07a1.27,1.27,0,0,1,.58-.47l.93-.48a1.72,1.72,0,0,1,.75-.18.73.73,0,0,1,.34.13,3.19,3.19,0,0,0-.77.38l-.54.57,1.09,1a.41.41,0,0,1,.07.28,1.54,1.54,0,0,1-.16.47l-.13.27-.24.11a.5.5,0,0,0-.11.18.65.65,0,0,0-.07.24,1.26,1.26,0,0,0,.06.34.68.68,0,0,0,.35-.13,1.13,1.13,0,0,1,.28-.1l-.14,2.48a3.57,3.57,0,0,0,0,.37c0,.13,0,.24,0,.33a1,1,0,0,1-.33.64.62.62,0,0,0,.07.38l.25.3a.53.53,0,0,1,.09.34,4.83,4.83,0,0,1-.16.71l.08.55q.07.78.07.81a4.16,4.16,0,0,1-.16.48l.1.59,0,.28.09.45a.61.61,0,0,1,0,.17,6.85,6.85,0,0,0-.17,1.49,1.56,1.56,0,0,0,.14.62,9.29,9.29,0,0,0,1.83-1.46l.59.11a2.13,2.13,0,0,1,.72-.3,6.45,6.45,0,0,1,.79-.13.58.58,0,0,1,.37.21l.08.31H711a1.44,1.44,0,0,0,.23-.34.16.16,0,0,1,.17-.11l.85.06a6.88,6.88,0,0,1,1.37.16l.47.52a1.6,1.6,0,0,0,.61.4l-.21.42a.85.85,0,0,0,.5.13,1.24,1.24,0,0,1,.3.76q0,.45,0,1a1.14,1.14,0,0,1-.2.65l-.17.17.21.55-.28.34,0,.13.38.4a1.07,1.07,0,0,0-.07.25v.35l0,.85v.16a1.84,1.84,0,0,0-.25.51c0,.06.06.38.18,1l0,1.22v.17a1.84,1.84,0,0,1-.79.27,2,2,0,0,1-.5.28,5.24,5.24,0,0,0-.54.23l-.5-.44a5,5,0,0,1,.3-.78,2.65,2.65,0,0,0,.24-1.09,3,3,0,0,0-.2-.67l0-.18.08-.52a5.63,5.63,0,0,0,.27-1.19l-.24-.14a15.09,15.09,0,0,1,.16-1.67,1.18,1.18,0,0,0,0-.17V276l-.1-.68a.69.69,0,0,1,.06-.13.55.55,0,0,0,.06-.2h0a2,2,0,0,0-.2-.47.87.87,0,0,0-.34-.4,1.77,1.77,0,0,0-.48-.16,7.15,7.15,0,0,0-.67-.31h-.59c-.53-.08-.84-.11-.93-.11H710l-.69,0a5.93,5.93,0,0,0-1.15.16l-.18,0-.82.42-.5.17a5.35,5.35,0,0,0-1,1q0,.35.93.55l-.07.38a12.66,12.66,0,0,0-.14,1.56.58.58,0,0,0-.41.11v.08a2.08,2.08,0,0,1,.45.72,5.32,5.32,0,0,1,.14,1.22l.07.45-.13.62.07.38v.5a.52.52,0,0,1-.16.28,7.76,7.76,0,0,1-.89.31,2.21,2.21,0,0,0-.68.5l-.33-.28a4.57,4.57,0,0,1,.2-1.06v-.41a3,3,0,0,1,.2-.4.67.67,0,0,0,.1-.34.47.47,0,0,0-.07-.23,1.37,1.37,0,0,1-.17-.35h0l0-.72v-.67s0-.12,0-.23,0-.15,0-.17l0-.52.07-1.06,0-.82.06-.27a1.88,1.88,0,0,1,.37-.37.28.28,0,0,0,.09-.23,2.79,2.79,0,0,0,0-.45l-.34.1a6.21,6.21,0,0,1-.17-1.53q0-1.08.07-2.41l.48-.06a2.36,2.36,0,0,1-.24-.67l-.33-.23a5.07,5.07,0,0,0,.06-.61,2.86,2.86,0,0,0,0-.47,11.64,11.64,0,0,1-.14-1.4.67.67,0,0,1,.27-.55,3.41,3.41,0,0,0,.67-.55h0a1.53,1.53,0,0,0-1-.34,3.22,3.22,0,0,0,.09-.52,3.67,3.67,0,0,0,.17-.57.61.61,0,0,0-.3-.44c0-.25,0-.43,0-.57s0-.36,0-.51q0-.48,0-.64t.08-.61a8.9,8.9,0,0,1-.34-1.22c0-.09,0-.2,0-.33Z" transform="translate(-580.24 -187.23)"/><path d="M727.11,272.22l.45-.28a3.07,3.07,0,0,0,.3.33l.3.14a12.4,12.4,0,0,1,1.22,1.19,2.19,2.19,0,0,1,.47.67q.11.27.24.65c.06.13.12.3.2.51l-.1.1a2.76,2.76,0,0,1-.42-.13l-.54.2-.48-.08-.43.11a10.08,10.08,0,0,0-.92-.62,2.88,2.88,0,0,0-.67.58l-1-.17a4,4,0,0,0-.54,0l-.07-.06q-.23,0-1.23,0l-.52.06-.65.06-.67.11h-.59a9,9,0,0,1-1.12.3,3.5,3.5,0,0,1-.14.67,1.48,1.48,0,0,1-.34.47q.45.31.48.44a6.3,6.3,0,0,0,.27,1.22l.25.14-.07.52.44.11a1.53,1.53,0,0,0,.37.78,1.4,1.4,0,0,0,.71.25q.07.44.23.52a1.11,1.11,0,0,0,.51.11l.24.37.27,0a5.4,5.4,0,0,1,.85.35.81.81,0,0,0,.37.08,3.06,3.06,0,0,0,.72-.17l.91-.1.69-.2a3.09,3.09,0,0,0,.67-.08,7.5,7.5,0,0,0,.88-.5,3.18,3.18,0,0,0,.72-.52,4.84,4.84,0,0,0,.48-.68.44.44,0,0,1,.4-.17.72.72,0,0,1,.37.18,2.76,2.76,0,0,1-.18.67q-.59,1-.75,1.33a.78.78,0,0,0-.31-.08,1.48,1.48,0,0,0-.47.28,1.31,1.31,0,0,1-.64.2,10.42,10.42,0,0,1-1.22.28,6,6,0,0,0-.74.1l-.45.14-.83-.13-.5.08h-.24l-.52,0q-.18,0-1-.1l-.27,0-.3-.18Q721.12,282,721,282a6,6,0,0,1-.48-.42l-.5-.31c-.26-.16-.41-.28-.42-.37l-.25-.45a3.45,3.45,0,0,0-.48-.54.75.75,0,0,0,.14-.34,8.6,8.6,0,0,0-.37-.79,4,4,0,0,1-.1-1.2,4.36,4.36,0,0,1,.2-1,2.78,2.78,0,0,1,.24-.64l.48-.57.31-.67,1.1-1,1-.64,1-.72.38-.07,1.08-.34.69-.06a7.19,7.19,0,0,1,.92-.31A1.06,1.06,0,0,1,727.11,272.22Zm-1.64,2.12.24.3.38-.07a3.8,3.8,0,0,0,.76-.2l.81.07s0,0,.07-.14a.85.85,0,0,0,0-.14.51.51,0,0,0-.17-.31l-.14-.17c-.23-.3-.37-.44-.43-.42l-.47-.23a1.07,1.07,0,0,1-.27-.33,11.81,11.81,0,0,0-1.4-.06h-.28l-.48.28a6.24,6.24,0,0,1-.78.2q-.59.21-1,.41c-.07,0-.25.21-.55.48l-.33.25v.08l0,0,1,.41.31.31.55-.67a.25.25,0,0,1,.16-.06l.69.18h0a4.92,4.92,0,0,0,.81-.14A2.55,2.55,0,0,1,725.47,274.35Z" transform="translate(-580.24 -187.23)"/><path d="M742,272.22l.45-.28a3,3,0,0,0,.3.33,1.68,1.68,0,0,0,.3.14,12.66,12.66,0,0,1,1.22,1.19,2.23,2.23,0,0,1,.47.67q.11.27.24.65.08.2.2.51l-.1.1a2.77,2.77,0,0,1-.43-.13l-.54.2-.48-.08-.42.11a10.16,10.16,0,0,0-.92-.62,2.87,2.87,0,0,0-.67.58l-1-.17a4.08,4.08,0,0,0-.54,0l-.07-.06q-.23,0-1.23,0l-.52.06-.65.06-.67.11h-.6a8.9,8.9,0,0,1-1.12.3,3.66,3.66,0,0,1-.14.67,1.48,1.48,0,0,1-.34.47q.45.31.48.44a6.56,6.56,0,0,0,.27,1.22l.26.14-.07.52.44.11a1.53,1.53,0,0,0,.37.78,1.39,1.39,0,0,0,.71.25q.07.44.23.52a1.12,1.12,0,0,0,.51.11l.24.37.27,0a5.4,5.4,0,0,1,.85.35.81.81,0,0,0,.37.08,3.06,3.06,0,0,0,.72-.17l.91-.1.69-.2a3.09,3.09,0,0,0,.67-.08,7.42,7.42,0,0,0,.88-.5,3.2,3.2,0,0,0,.72-.52,4.75,4.75,0,0,0,.48-.68.44.44,0,0,1,.4-.17.72.72,0,0,1,.37.18,2.79,2.79,0,0,1-.18.67q-.59,1-.75,1.33a.77.77,0,0,0-.31-.08,1.48,1.48,0,0,0-.47.28,1.3,1.3,0,0,1-.64.2,10.37,10.37,0,0,1-1.22.28,5.89,5.89,0,0,0-.74.1l-.45.14-.84-.13-.5.08h-.24l-.52,0q-.18,0-1-.1l-.27,0-.3-.18Q736,282,735.94,282a5.84,5.84,0,0,1-.48-.42l-.5-.31c-.26-.16-.41-.28-.42-.37l-.25-.45a3.5,3.5,0,0,0-.48-.54.76.76,0,0,0,.14-.34,8.28,8.28,0,0,0-.37-.79,4,4,0,0,1-.1-1.2,4.34,4.34,0,0,1,.2-1,2.86,2.86,0,0,1,.24-.64l.48-.57.31-.67,1.1-1,1-.64,1-.72.38-.07,1.08-.34.69-.06a7.23,7.23,0,0,1,.92-.31A1.06,1.06,0,0,1,742,272.22Zm-1.64,2.12.24.3.38-.07a3.8,3.8,0,0,0,.76-.2l.81.07s0,0,.07-.14a1,1,0,0,0,0-.14.51.51,0,0,0-.17-.31l-.14-.17c-.23-.3-.37-.44-.42-.42l-.47-.23a1.06,1.06,0,0,1-.27-.33,11.85,11.85,0,0,0-1.4-.06h-.28l-.48.28a6.19,6.19,0,0,1-.78.2q-.59.21-1,.41c-.07,0-.25.21-.55.48l-.33.25v.08l0,0,1,.41.31.31.55-.67a.24.24,0,0,1,.16-.06l.69.18h0a4.89,4.89,0,0,0,.81-.14A2.55,2.55,0,0,1,740.4,274.35Z" transform="translate(-580.24 -187.23)"/><path d="M755.9,277.33l-.37.27a3.44,3.44,0,0,0-.88-.16,9.06,9.06,0,0,0-.92.06,1.16,1.16,0,0,0-.42-.5l-.27.35a5.79,5.79,0,0,0-.71.16,1.24,1.24,0,0,1-.3,0H752l-.54-.11,0,0-.27-.28a1,1,0,0,1-.38.1,1.51,1.51,0,0,1-.35-.14l-.25-.1q-1.09-.38-1.09-1.25a2.39,2.39,0,0,1,.58-1.49,5.88,5.88,0,0,1,.79-.75l.28-.27.67-.4a12.37,12.37,0,0,1,1.5-.82,5,5,0,0,1,1.77-.45c.08,0,.5.1,1.27.3l.74-.13a3.42,3.42,0,0,1,.81.1c.19.09.28.19.28.28a.41.41,0,0,1-.14.28l-.69.42a3.89,3.89,0,0,1-.76.41,5.12,5.12,0,0,1-1.35-.13,2.22,2.22,0,0,0-.3-.48h-.08l-.27.28h-.82l-.37.08a.76.76,0,0,0-.43-.08,8.27,8.27,0,0,1-.93.57,1.67,1.67,0,0,0-.59.55,1.25,1.25,0,0,0-.25.69q0,.16.27.4a2.93,2.93,0,0,0,.5.23,4.79,4.79,0,0,1,.55.31,1.68,1.68,0,0,0,0,.18q0,.3.24.3t.51-.37a4.4,4.4,0,0,0,.55,0l.81-.13.45,0,.68-.08a4.6,4.6,0,0,1,.72.2l.51-.06.51.35a3.52,3.52,0,0,1,1.12.72,1.13,1.13,0,0,1,.25.45l.1.47a8.28,8.28,0,0,1,.2,1c0,.06,0,.22-.06.5,0,.6-.22.91-.52.91a1.47,1.47,0,0,1-.33,0,2.2,2.2,0,0,1-.28.81q-.64.74-.82,1a2.59,2.59,0,0,0-1.19.44,1.59,1.59,0,0,1-.25.18l-.35,0-1.15.31-.62-.1a7.42,7.42,0,0,0-.85.23l-.34,0a7.78,7.78,0,0,1-1-.11,2.15,2.15,0,0,1-.78-.27l-.45-.3a5.43,5.43,0,0,1-1-.74,1.5,1.5,0,0,1-.42-1c0-.07.1-.18.31-.34l.38-.35a2.52,2.52,0,0,1,.62-.4.14.14,0,0,1,.1,0,.93.93,0,0,1,.33.68l-.06.45h0a.21.21,0,0,0,.07.2,4.19,4.19,0,0,0,.51.31,2,2,0,0,1,.25.18l.37.31.52.21.48.25h.54l.34.07a3.76,3.76,0,0,1,.93-.17,1.39,1.39,0,0,0,.58-.11l.55-.27a2.76,2.76,0,0,0,.52-.21,3.85,3.85,0,0,0,.71-.93,3.24,3.24,0,0,0,.45-1.71.69.69,0,0,0-.13-.4Q756.06,277.65,755.9,277.33Z" transform="translate(-580.24 -187.23)"/><path d="M769.91,272.22l.45-.28a3,3,0,0,0,.3.33,1.68,1.68,0,0,0,.3.14,12.66,12.66,0,0,1,1.22,1.19,2.23,2.23,0,0,1,.47.67q.11.27.24.65.08.2.2.51l-.1.1a2.77,2.77,0,0,1-.43-.13l-.54.2-.48-.08-.42.11a10.16,10.16,0,0,0-.92-.62,2.87,2.87,0,0,0-.67.58l-1-.17a4.08,4.08,0,0,0-.54,0l-.07-.06q-.23,0-1.23,0l-.52.06-.65.06-.67.11h-.6a8.9,8.9,0,0,1-1.12.3,3.66,3.66,0,0,1-.14.67,1.48,1.48,0,0,1-.34.47q.45.31.48.44a6.56,6.56,0,0,0,.27,1.22l.26.14-.07.52.44.11a1.53,1.53,0,0,0,.37.78,1.39,1.39,0,0,0,.71.25q.07.44.23.52a1.12,1.12,0,0,0,.51.11l.24.37.27,0a5.4,5.4,0,0,1,.85.35.81.81,0,0,0,.37.08,3.06,3.06,0,0,0,.72-.17l.91-.1.69-.2a3.09,3.09,0,0,0,.67-.08,7.42,7.42,0,0,0,.88-.5,3.2,3.2,0,0,0,.72-.52,4.75,4.75,0,0,0,.48-.68.44.44,0,0,1,.4-.17.72.72,0,0,1,.37.18,2.79,2.79,0,0,1-.18.67q-.59,1-.75,1.33a.77.77,0,0,0-.31-.08,1.48,1.48,0,0,0-.47.28,1.3,1.3,0,0,1-.64.2,10.37,10.37,0,0,1-1.22.28,5.89,5.89,0,0,0-.74.1l-.45.14-.84-.13-.5.08h-.24l-.52,0q-.18,0-1-.1l-.27,0-.3-.18q-1.06-.33-1.17-.38a5.84,5.84,0,0,1-.48-.42l-.5-.31c-.26-.16-.41-.28-.42-.37l-.25-.45a3.5,3.5,0,0,0-.48-.54.76.76,0,0,0,.14-.34,8.28,8.28,0,0,0-.37-.79,4,4,0,0,1-.1-1.2,4.34,4.34,0,0,1,.2-1,2.86,2.86,0,0,1,.24-.64l.48-.57.31-.67,1.1-1,1-.64,1-.72.38-.07,1.08-.34.69-.06a7.23,7.23,0,0,1,.92-.31A1.06,1.06,0,0,1,769.91,272.22Zm-1.64,2.12.24.3.38-.07a3.8,3.8,0,0,0,.76-.2l.81.07s0,0,.07-.14a1,1,0,0,0,0-.14.51.51,0,0,0-.17-.31l-.14-.17c-.23-.3-.37-.44-.42-.42l-.47-.23a1.06,1.06,0,0,1-.27-.33,11.85,11.85,0,0,0-1.4-.06h-.28l-.48.28a6.19,6.19,0,0,1-.78.2q-.59.21-1,.41c-.07,0-.25.21-.55.48l-.33.25v.08l0,0,1,.41.31.31.55-.67a.24.24,0,0,1,.16-.06l.69.18h0a4.89,4.89,0,0,0,.81-.14A2.55,2.55,0,0,1,768.26,274.35Z" transform="translate(-580.24 -187.23)"/></g><g id="Layer_2" data-name="Layer 2"><path class="cls-1" d="M580.32,251.54a3.31,3.31,0,0,1,.3-.51l1-.61A9.15,9.15,0,0,0,583,248.8a5.7,5.7,0,0,1,.78-.64,2.25,2.25,0,0,0,.64-.78,5.06,5.06,0,0,1,0-.54,2.2,2.2,0,0,1,.91-1.52,13.6,13.6,0,0,0,1.56-1.62l1.86-3.38a4.26,4.26,0,0,1,.64-.2l.14-.14c0-.25,0-.46,0-.64a1.13,1.13,0,0,1,.07-.51l.85-1.12,3.35-5.21.07-.34a.82.82,0,0,0-.41-.2L593,232a1.44,1.44,0,0,1-.34,0l-.64,0a3.55,3.55,0,0,1-.2-.95,2.16,2.16,0,0,1,.44-.78,5.64,5.64,0,0,1,.57-1.35l.81-1.15a3,3,0,0,1,.95.1l1.49.51.1-.07a2.34,2.34,0,0,0,.1-.54,2.68,2.68,0,0,0-.17-.78,2.11,2.11,0,0,0,.68-.57l.68-1.29a6.38,6.38,0,0,1,1.32-1.45,2.92,2.92,0,0,1,.22-1,15.41,15.41,0,0,1,1.3-1.22q.1-.13.78-1.83.2-.44,1.86-2.91l2.23-4.33.91-1a2.44,2.44,0,0,1,.14-.71l.95-1.39a.41.41,0,0,0,.07-.24,2.51,2.51,0,0,0-.07-.54,3.22,3.22,0,0,0,.64-.95,9.16,9.16,0,0,1,.64-1.15l.68,1a1.78,1.78,0,0,0,.17-.57,2.07,2.07,0,0,0-.27-.81,4.9,4.9,0,0,1,.51-1,4.21,4.21,0,0,0,.64-1.12,3.46,3.46,0,0,0,0-.74,3.22,3.22,0,0,1,.37-.74,14.33,14.33,0,0,0,.68-1.66q.07-.2.37-.91l1.45-.14-.14-.44-.88-.41v-.54a2.56,2.56,0,0,0,.74-.91l-.37-.34V197a5.44,5.44,0,0,0,1-1.32q.44-.81.78-1.35a1.68,1.68,0,0,1-.27-.78v-1.29l2.74-1.89.64.47a7.71,7.71,0,0,0,.41-.85c.16-.38.32-.57.47-.57a1.37,1.37,0,0,1,.54.14,1.66,1.66,0,0,1,.68-1,2.11,2.11,0,0,1,1.22-.51q1,0,1.12,2.47a16,16,0,0,1,.41,2.23,6.7,6.7,0,0,0,.88,2.37,12.55,12.55,0,0,1,.44,2.3v.81l-1.35.71a2,2,0,0,0,.57.85q.17.07,1.52.47.64.2,1.35,2a6.66,6.66,0,0,1,.51,1.52,2.29,2.29,0,0,1-.41.85c.36.36.6.59.71.68a5,5,0,0,1,.91.91l.41,1,.68,1.69a4.16,4.16,0,0,1,.17,1.12,3.89,3.89,0,0,1,1.18,2.23q.1.91.1.95l.74,1.15,1.42,2.84-.78.47a2.1,2.1,0,0,0,.54.95l.51.1-.1.74q3.45,3.28,3.55,6.39a14.57,14.57,0,0,0,1.45,3.14q1.83,3.45,2,4a6.84,6.84,0,0,0,.74,1.45l2.1,4.63-.07,1q2,1.08,2,2.06,0,.47-1,.95a1.47,1.47,0,0,0,.54.71,3,3,0,0,0,.68.27q.47.17,1,1.25a18.75,18.75,0,0,1,.88,2.43q1.45,2.23,1.83,2.91a1.41,1.41,0,0,0-.64,1.08,4.85,4.85,0,0,0,0,.51,10,10,0,0,1-1.62.61,5.79,5.79,0,0,1-1.18.1,11.57,11.57,0,0,0-2.37.81,16.34,16.34,0,0,1-1-2.84,4.51,4.51,0,0,0-.64-1.52,19.44,19.44,0,0,1-.91-2.81,5.06,5.06,0,0,1,0-.54,2.26,2.26,0,0,1-.71-1,8.52,8.52,0,0,1-.07-1,3.42,3.42,0,0,1-.07-.51,2.85,2.85,0,0,1,.34-1.12l-1-.91q.41-.51.57-.68.34-.27.34-.47a2,2,0,0,0-.07-.47l-1.62.14a11.06,11.06,0,0,1-1.12-1.72,17.17,17.17,0,0,1-.54-2.13l-.51-1.18a15,15,0,0,0-.61-2.57,2,2,0,0,0-1.89-1.22q-1.18,0-1.32,2.54a1.45,1.45,0,0,1-.34.1,1.67,1.67,0,0,1-.95-.47,5.35,5.35,0,0,0-2-.88,5.22,5.22,0,0,1-1.42-.51,4.93,4.93,0,0,0-2-.57,14.58,14.58,0,0,0-1.86.34l-1-.17-1.08.1h-.91l-.91.14-1.59,0-1.35,0-.51,0-2.1-.47-1,.2a12.22,12.22,0,0,0-1.18-.3,13,13,0,0,0-1.62.37,13.87,13.87,0,0,1-1.86.3l-.95-1.08a7.58,7.58,0,0,0-2.16.78,9.62,9.62,0,0,1-1.49.27l-.54.07a6.38,6.38,0,0,1-1-.1,7.67,7.67,0,0,0-1.49-.17,8.36,8.36,0,0,0-1.69.3,7.92,7.92,0,0,1-1.49.27q-.37.61-.47.81a10.08,10.08,0,0,1-1.32,2q-.58.91-1.59,2.67l-.61-.14a.76.76,0,0,0-.27.51,4.27,4.27,0,0,0,.1.71c0,.14,0,.33.07.57a5.86,5.86,0,0,0-.71.91l-1.62,3.28-.95,1.56-.3.47-1.86,1.18a.44.44,0,0,0-.14.37q0,.37.78,1l-.51,1.59a4.65,4.65,0,0,0-1.12.54,3.7,3.7,0,0,0-1,1.49,7.05,7.05,0,0,0-1.25.61,1.48,1.48,0,0,1-.71.34,2.73,2.73,0,0,1-.68-.34.74.74,0,0,0-.44-.1l-.47,0A3.4,3.4,0,0,0,580.32,251.54ZM599,228.14a3.21,3.21,0,0,1,.91-.41q.24,0,.71.44l1-.14.41.71a6.31,6.31,0,0,1,1.93-.24h3a8.72,8.72,0,0,1,2.27.51,20.38,20.38,0,0,1,2.2.24,2,2,0,0,0,1.66,1l2.13-1,1.15.24h1.93l.74.2,1-.14.91.1.91-.07.85.24,2-.34,1.56-.1,3-.3,2.5.2q.54,0,.54-.41a7.11,7.11,0,0,0-.3-1.15,4.79,4.79,0,0,1-.1-.81,2.87,2.87,0,0,1-.95-1,10.09,10.09,0,0,0-1.35-2.4,3.4,3.4,0,0,1-.51-1.12,4,4,0,0,0-.54-1.22,8.07,8.07,0,0,0,.17-1.49,4,4,0,0,0-.27-1.12l-1.18.17a8.86,8.86,0,0,1-.44-1l-.24-.85-.74-1-.85-1.49-.37-.64a7.5,7.5,0,0,0-.88-2.5,2.83,2.83,0,0,1-.44-1.49l.68-.3a1,1,0,0,0-.85-.54l-.47,0a9.23,9.23,0,0,0-.47-.91q-.78-1.15-.81-1.25l-.2-1.32-.51-.88-.51-1.18L619.08,202l-.61-2-.57-1a12.31,12.31,0,0,0-1-1.69,3,3,0,0,0-1.15,1.08,4.15,4.15,0,0,0-.54,2H615q-.58,1-1.49,2.27l-2,3.72a6.72,6.72,0,0,0-.71,1.62,1.66,1.66,0,0,0-.78.95,3.16,3.16,0,0,1-1.83,1.86l.17.95-.51.24h0l-1.12-.1-.27.44.88.54a13.08,13.08,0,0,1-1.18,2.67,10.14,10.14,0,0,1-3,3.92q-.34.2-.41,1.08a3.22,3.22,0,0,1-.3,1.22l-.91,1.69-.78.85-.41.95a13,13,0,0,0-.95,1.69Q599.23,227.57,599,228.14Z" transform="translate(-580.24 -187.23)"/><path class="cls-1" d="M666.59,225.59a8.17,8.17,0,0,0,3.62-2.44q-2.22-.57-2.22-1.92,0-.35,0-.87l-1.66.39a4.46,4.46,0,0,0-1.18-1.35,12,12,0,0,1-1.31-1.66l.17-1.26-.83-.48.74-1.92h-.22c0-.29,0-.54,0-.74a3.52,3.52,0,0,1,1.09-2.22h.92a4.63,4.63,0,0,1,.57-1L667.6,209l1.31-1.35a6.33,6.33,0,0,1,1-.39l.44-1,1.53-.17a3,3,0,0,1,1.26-1.18l2-.57,1.13-.52.78-.31a12,12,0,0,1,3.27-1.44,13.23,13.23,0,0,1,1.53,2l2-2.14a1.89,1.89,0,0,1,1.39-.48,4.07,4.07,0,0,1,2.48,1.44,5.2,5.2,0,0,1,1.13.87,5.7,5.7,0,0,1,.26,1.22,5.13,5.13,0,0,0,.78,1.48q-.35.78-.74.78-.22,0-1.7-1.66l-2.4-1.22-.83-.52q-.57,0-.7,2.31l-1.09-.61-.52.87-.26,0a5,5,0,0,1-1.22-.31,1.32,1.32,0,0,0-.48-.13,3.44,3.44,0,0,0-1,.22,11.51,11.51,0,0,1-1.26.31,3,3,0,0,0-1.18-.39,5.83,5.83,0,0,0-1.35.52l-1.48.44-.92.48a6.93,6.93,0,0,0-1.18.52q-.26.17-2,1.79-1.7,1.26-1.77,1.33a7.83,7.83,0,0,0-.37,1.24q-.35,1.4-.52,2a5.18,5.18,0,0,0,1,1.13,2.44,2.44,0,0,1,.83,1.44,6.85,6.85,0,0,1,1.13.65,8.89,8.89,0,0,0,1.83.92l2.75.7,1.09,0,1.39.48a34.8,34.8,0,0,1,3.75.13,8.9,8.9,0,0,0,1.18.09,10.28,10.28,0,0,0,2.27-.74l2.53-.13a14.56,14.56,0,0,1,1.44-.35,2.87,2.87,0,0,1,1.26.48,10.86,10.86,0,0,0-.87,2.27,1.21,1.21,0,0,1-.78.92L685,223.69a7.11,7.11,0,0,0-.94.76,4.73,4.73,0,0,1-1.22-.92,2.23,2.23,0,0,0-1.09-.57l-.65.44q-1-1.87-1.26-1.87t-.7,1.87q-.92-1.83-1.7-1.83a.71.71,0,0,0-.52.22l-2,2.44L674,224a4.28,4.28,0,0,0-1.48.44l.48,1-.17.17h-.57a2.76,2.76,0,0,0-1.09.17,16.16,16.16,0,0,0-1.44,1q-2,1.09-2.14,1.22a10.09,10.09,0,0,0-.87,1.31,10.86,10.86,0,0,0-1.35,1.44,3.7,3.7,0,0,1-1.83,1.09,10.5,10.5,0,0,1-1.13,2.75,15.45,15.45,0,0,0-.57,1.53q0,.3-.17,2.09l-.26,1,.39,1.09a7.37,7.37,0,0,0,.83,2.53,4.06,4.06,0,0,1,.22.52,3.69,3.69,0,0,0,1.44,1.7,3.61,3.61,0,0,0,.61,1.22l1.26,1.13a33.54,33.54,0,0,0,2.53,2.44,11.14,11.14,0,0,0,2.27.87,7,7,0,0,0,1.39.09l1.83.48h1.35l1.48.09.61,0,1.83,0,.92-.39,1.26-.39,1.39-.7,2.14-.65a3.4,3.4,0,0,1,1-.31h.39a4.36,4.36,0,0,1,.61-.87l3-2a10.91,10.91,0,0,0,1.83-2.22,7.29,7.29,0,0,0,1.39-4.4,2.78,2.78,0,0,0-1.61-2.4q-1.26-.74-1.31-.78l-.61-.83-1-.61-1.48-1.31-1.48-.48-1.57-.65-.65,0-.74-.48-1.61.48a5.52,5.52,0,0,0-1.79.44q-.52.13-2,2.88a12.31,12.31,0,0,1-.7,1.22l.52,1.13q0,1-1.48,1a5.4,5.4,0,0,1-.65,0,4.23,4.23,0,0,0-1.44-1,1.25,1.25,0,0,1-.7-1.22,2.4,2.4,0,0,1,.57-1.59,20.1,20.1,0,0,1,2.48-2.2l1.66-1.44,2.66-1,1.09-.61,1.26-.35,1.13-.44,1.39-.17,1-.13,1.53.35.74.09,1.35.52a8.41,8.41,0,0,1,1.92.92q.13,2.22,1.13,2.22a.59.59,0,0,0,.44-.26v-1l1.13.7a15.64,15.64,0,0,0,2.88,1.53q.92.44,1,.44a4.53,4.53,0,0,0,1.46-.35,6.71,6.71,0,0,0,1.55-.78,14.34,14.34,0,0,1,1.74-1.09q1.4-.65,1.31-3l.26-1.61q0-.65-1.13-1.83a2.21,2.21,0,0,1-.7-1.22,9.17,9.17,0,0,1,2.79-1.13l.74,1.26a5.82,5.82,0,0,1,2.14.83l.26,1,1.18.17q-.09.92-.09,1.22a7.64,7.64,0,0,1-.78,3.62l-1.26,1a6.82,6.82,0,0,1-2.7,2.4l-.7.52q-.87.09-1,.13l-1.26.83a12,12,0,0,0-2.92.92,1.33,1.33,0,0,0-.57,1.09,3.48,3.48,0,0,0,.52,1.39q-.78.57-.83.83a6.84,6.84,0,0,1-.61,2.35l-1.7-.17a2.19,2.19,0,0,0,.65,1.57,13.3,13.3,0,0,1-1.57,1.39l-1,1-1.7.87a4.14,4.14,0,0,0-1,1.18h-.35a5.94,5.94,0,0,0-1.13.35l-.17,0-.61.39-1.61.7a17.16,17.16,0,0,1-3.57,1.87l-2.27.61-1.39.52-3.53.48-3.84.7a5,5,0,0,1-1.61-.52q-.57.7-1,.7a10.26,10.26,0,0,1-1.09-.09c-.15,0-.36-.06-.65-.09a3.39,3.39,0,0,1-1.83-.48,12,12,0,0,0-1.61-1.44l-.48,1a7.75,7.75,0,0,1-2.48-1.44l-1.87-1.66a15.37,15.37,0,0,1-1.57-2.27s.1-.65.31-1.87l-.09-.13-.17-.44q-1.66-.78-1.74-.87a.42.42,0,0,1-.13-.31v-.74l0-.48q1.26-.17,1.26-.78t-1-.7h-.39a2.47,2.47,0,0,1-.35-1.39,5.2,5.2,0,0,1,.48-1.48l.26-1,.57-1a6.45,6.45,0,0,1,1-2.27q.83-1,.87-1.09a6.17,6.17,0,0,1,.65-1.09l.7-.48q.09-.09.52-.65a5.9,5.9,0,0,1,2-1.48,2.5,2.5,0,0,0,.92-1.09c.29-.64.45-1,.48-1l1-.92A1.64,1.64,0,0,0,666.59,225.59Z" transform="translate(-580.24 -187.23)"/><path class="cls-1" d="M705.62,251.51a3.35,3.35,0,0,1,.31-.51l1-.62a9.26,9.26,0,0,0,1.37-1.64,5.77,5.77,0,0,1,.79-.65,2.27,2.27,0,0,0,.65-.79,5.12,5.12,0,0,1,0-.55,2.22,2.22,0,0,1,.92-1.54,13.61,13.61,0,0,0,1.57-1.64l1.88-3.42a4.41,4.41,0,0,1,.65-.21l.14-.14c0-.25,0-.47,0-.65a1.13,1.13,0,0,1,.07-.51l.85-1.13,3.39-5.27.07-.34a.82.82,0,0,0-.41-.21l-.38.07a1.49,1.49,0,0,1-.34,0l-.65,0a3.6,3.6,0,0,1-.21-1,2.19,2.19,0,0,1,.44-.79,5.75,5.75,0,0,1,.58-1.37l.82-1.16a3.07,3.07,0,0,1,1,.1l1.51.51.1-.07a2.27,2.27,0,0,0,.1-.55,2.74,2.74,0,0,0-.17-.79,2.15,2.15,0,0,0,.68-.58l.68-1.3a6.44,6.44,0,0,1,1.33-1.47,2.94,2.94,0,0,1,.22-1,15.17,15.17,0,0,1,1.32-1.23c.07-.09.33-.71.79-1.85q.21-.44,1.88-2.94l2.26-4.38.92-1a2.47,2.47,0,0,1,.14-.72l1-1.4a.43.43,0,0,0,.07-.24,2.61,2.61,0,0,0-.07-.55,3.23,3.23,0,0,0,.65-1,9.73,9.73,0,0,1,.65-1.16l.68,1a1.82,1.82,0,0,0,.17-.58,2.07,2.07,0,0,0-.27-.82,5.06,5.06,0,0,1,.51-1,4.24,4.24,0,0,0,.65-1.13,3.66,3.66,0,0,0,0-.75,3.23,3.23,0,0,1,.38-.75,15,15,0,0,0,.68-1.68q.07-.21.38-.92l1.47-.14-.14-.44-.89-.41v-.55a2.59,2.59,0,0,0,.75-.92l-.38-.34v-.14a5.53,5.53,0,0,0,1-1.33q.44-.82.79-1.37a1.71,1.71,0,0,1-.27-.79v-1.3l2.77-1.92.65.48a7.35,7.35,0,0,0,.41-.86c.16-.39.32-.58.48-.58a1.38,1.38,0,0,1,.55.14,1.67,1.67,0,0,1,.68-1.06,2.14,2.14,0,0,1,1.23-.51q1,0,1.13,2.5a15.82,15.82,0,0,1,.41,2.26,6.79,6.79,0,0,0,.89,2.39,12.76,12.76,0,0,1,.44,2.33v.82l-1.37.72a2,2,0,0,0,.58.86c.12,0,.63.21,1.54.48q.65.21,1.37,2a6.71,6.71,0,0,1,.51,1.54,2.32,2.32,0,0,1-.41.86c.37.36.6.59.72.68a5.07,5.07,0,0,1,.92.92l.41,1.06.68,1.71a4,4,0,0,1,.17,1.13,3.94,3.94,0,0,1,1.2,2.26c.07.62.1.94.1,1l.75,1.16,1.44,2.87-.79.48a2.14,2.14,0,0,0,.55,1l.51.1-.1.75q3.49,3.32,3.59,6.47a14.9,14.9,0,0,0,1.47,3.18q1.85,3.49,2.05,4.07a6.93,6.93,0,0,0,.75,1.47l2.12,4.69-.07,1Q770,241,770,242q0,.48-1,1a1.49,1.49,0,0,0,.55.72,3,3,0,0,0,.68.27c.32.11.66.54,1,1.27a18.78,18.78,0,0,1,.89,2.46q1.47,2.26,1.85,2.94a1.42,1.42,0,0,0-.65,1.09c0,.14,0,.31,0,.51a10.21,10.21,0,0,1-1.64.62,5.85,5.85,0,0,1-1.2.1,11.71,11.71,0,0,0-2.4.82,16.7,16.7,0,0,1-1.06-2.87,4.63,4.63,0,0,0-.65-1.54,19.42,19.42,0,0,1-.92-2.84,5.42,5.42,0,0,1,0-.55,2.28,2.28,0,0,1-.72-1,8.1,8.1,0,0,1-.07-1.06,3.63,3.63,0,0,1-.07-.51,2.86,2.86,0,0,1,.34-1.13l-1-.92q.41-.51.58-.68c.23-.18.34-.34.34-.48a2,2,0,0,0-.07-.48l-1.64.14a11.17,11.17,0,0,1-1.13-1.74,17.37,17.37,0,0,1-.55-2.16l-.51-1.2a15.24,15.24,0,0,0-.61-2.6,2,2,0,0,0-1.92-1.23q-1.2,0-1.34,2.57a1.5,1.5,0,0,1-.34.1,1.69,1.69,0,0,1-1-.48,5.43,5.43,0,0,0-2.05-.89,5.28,5.28,0,0,1-1.44-.51,5,5,0,0,0-2-.58,14.71,14.71,0,0,0-1.88.34l-1-.17-1.09.1h-.92l-.92.14-1.61,0-1.37,0-.51,0-2.12-.48-1,.21c-.73-.21-1.13-.31-1.2-.31a13.16,13.16,0,0,0-1.64.38,14.08,14.08,0,0,1-1.88.31l-1-1.09a7.67,7.67,0,0,0-2.19.79,9.77,9.77,0,0,1-1.51.27l-.55.07a6.45,6.45,0,0,1-1-.1,7.76,7.76,0,0,0-1.51-.17,8.47,8.47,0,0,0-1.71.31,8,8,0,0,1-1.51.27c-.25.41-.41.68-.48.82a10.19,10.19,0,0,1-1.33,2.05q-.58.92-1.61,2.7l-.62-.14a.77.77,0,0,0-.27.51,4.56,4.56,0,0,0,.1.72c0,.14,0,.33.07.58a5.81,5.81,0,0,0-.72.92l-1.64,3.32-1,1.57-.31.48-1.88,1.2a.44.44,0,0,0-.14.38q0,.38.79,1l-.51,1.61a4.76,4.76,0,0,0-1.13.55,3.76,3.76,0,0,0-1,1.51,7.13,7.13,0,0,0-1.27.62,1.49,1.49,0,0,1-.72.34,2.77,2.77,0,0,1-.68-.34.75.75,0,0,0-.44-.1l-.48,0A3.44,3.44,0,0,0,705.62,251.51Zm18.88-23.67a3.28,3.28,0,0,1,.92-.41c.16,0,.4.15.72.44l1.06-.14.41.72a6.37,6.37,0,0,1,1.95-.24h3a8.82,8.82,0,0,1,2.29.51,20.61,20.61,0,0,1,2.22.24A2,2,0,0,0,738.8,230L741,229l1.16.24h1.95l.75.21,1-.14.92.1.92-.07.86.24,2-.34,1.57-.1,3-.31,2.53.21c.36,0,.55-.14.55-.41a7.27,7.27,0,0,0-.31-1.16,4.87,4.87,0,0,1-.1-.82,2.87,2.87,0,0,1-1-1,10.31,10.31,0,0,0-1.37-2.43A3.4,3.4,0,0,1,755,222a4,4,0,0,0-.55-1.23,8.25,8.25,0,0,0,.17-1.51,4,4,0,0,0-.27-1.13l-1.2.17a9.06,9.06,0,0,1-.45-1l-.24-.86-.75-1.06-.85-1.51-.38-.65a7.64,7.64,0,0,0-.89-2.53,2.88,2.88,0,0,1-.45-1.51l.68-.31a1,1,0,0,0-.85-.55l-.48,0a9.9,9.9,0,0,0-.48-.92q-.79-1.16-.82-1.27l-.21-1.33-.51-.89-.51-1.2-1.13-1.4-.62-2-.58-1a12.7,12.7,0,0,0-1-1.71,3,3,0,0,0-1.17,1.09,4.23,4.23,0,0,0-.55,2.05h-.2q-.58,1-1.51,2.29l-2,3.76a6.79,6.79,0,0,0-.72,1.64,1.68,1.68,0,0,0-.79,1,3.19,3.19,0,0,1-1.84,1.88l.17,1-.51.24h0l-1.13-.1-.27.44.89.55a13.16,13.16,0,0,1-1.2,2.7,10.27,10.27,0,0,1-3,4q-.34.21-.41,1.09a3.21,3.21,0,0,1-.31,1.23l-.92,1.71-.79.86-.41,1a13.19,13.19,0,0,0-1,1.71Q724.74,227.26,724.5,227.84Z" transform="translate(-580.24 -187.23)"/></g></svg>